<svg width="1000" height="1500" viewBox="0 0 1000 1500" fill="none" xmlns="http://www.w3.org/2000/svg">
<path d="M870.397 801.314C872.101 805.274 869.197 809.686 864.886 809.686L136.114 809.686C131.803 809.686 128.899 805.274 130.603 801.314L473.895 3.62829C474.842 1.42665 477.009 0.000127349 479.406 0.000127113L521.594 0.000122961C523.991 0.000122725 526.158 1.42663 527.105 3.62828L870.397 801.314Z" fill="#6576B2"/>
<circle cx="482.217" cy="229.846" r="20.8951" fill="#FFB72D"/>
<circle cx="534.454" cy="297.755" r="20.8951" fill="#FFB72D"/>
<circle cx="429.979" cy="365.667" r="20.8951" fill="#FFB72D"/>
<circle cx="633.708" cy="407.455" r="20.8951" fill="#FFB72D"/>
<circle cx="476.993" cy="491.036" r="20.8951" fill="#FFB72D"/>
<circle cx="618.036" cy="569.393" r="20.8951" fill="#FFB72D"/>
<circle cx="429.979" cy="663.419" r="20.8951" fill="#FFB72D"/>
<circle cx="330.727" cy="590.287" r="20.8951" fill="#FFB72D"/>
<circle cx="685.944" cy="715.659" r="20.8951" fill="#FFB72D"/>
</svg>
