<svg width="1000" height="1500" viewBox="0 0 1000 1500" fill="none" xmlns="http://www.w3.org/2000/svg">
<path fill-rule="evenodd" clip-rule="evenodd" d="M679.613 421.905C716.209 456.603 782.782 519.921 752.528 607.028C722.964 692.148 666.806 710.021 600.672 718.311C533.204 726.769 448.678 632.086 541.033 552.978C629.942 552.399 712.62 545.532 679.613 421.905V421.905Z" fill="#D9D9D9" stroke="black" stroke-width="0.282222"/>
<path fill-rule="evenodd" clip-rule="evenodd" d="M690.896 440.328C713.446 460.574 780.272 517.607 750.018 604.715C720.454 689.835 667.132 712.765 600.484 713.499C570.374 713.83 553.802 707.358 537.413 691.187C693.232 710.223 797.913 564.188 690.896 440.328Z" fill="#C8B7B7"/>
<path d="M500.369 472.543C303.83 480.399 174.663 654.382 287.685 812.613C296.573 825.055 363.111 758.244 480.537 742.3C608.179 724.968 752.718 740.91 752.718 740.91C767.57 605.73 629.081 467.397 500.369 472.543Z" fill="#9F3116" stroke="black" stroke-width="0.282222"/>
<path fill-rule="evenodd" clip-rule="evenodd" d="M735.289 673.013C735.289 673.013 617.046 604.185 550.693 602.836C511.594 602.04 436.274 628.771 436.274 628.771C436.274 628.771 431.782 563.146 410.339 541.812C394.938 526.49 368.287 516.308 347.79 523.505C295.078 542.013 265.95 606.795 251.678 660.808C244.762 686.981 259.306 741.664 259.306 741.664C426.504 735.157 584.14 739.703 735.289 673.013Z" fill="#6B1602"/>
<path fill-rule="evenodd" clip-rule="evenodd" d="M453.063 483.855C511.807 524.484 585.095 506.308 558.328 721.846H689.529C693.078 601.926 636.209 430.983 453.063 483.855Z" fill="#CAC9D9" stroke="black" stroke-width="0.282222"/>
<path d="M604.902 574.53C593.154 574.53 583.631 565.007 583.631 553.26C583.631 541.512 593.154 531.989 604.902 531.989C616.649 531.989 626.172 541.512 626.172 553.26C626.172 565.007 616.649 574.53 604.902 574.53Z" fill="#EEEDFF" stroke="black" stroke-width="0.143086"/>
<path fill-rule="evenodd" clip-rule="evenodd" d="M752.098 659.301C765.024 684.696 758.2 744.734 758.2 744.734C508.417 723.34 465.12 751.689 247.128 849.999C247.128 849.999 213.777 803.066 213.565 775.246C212.976 697.814 716.611 589.586 752.098 659.301V659.301Z" fill="#9392A2" stroke="black" stroke-width="0.282222"/>
<path d="M635.351 712.795C620.557 712.795 608.565 700.802 608.565 686.009C608.565 671.215 620.557 659.223 635.351 659.223C650.144 659.223 662.137 671.215 662.137 686.009C662.137 700.802 650.144 712.795 635.351 712.795Z" fill="#EEEDFF" stroke="black" stroke-width="0.180189"/>
<path d="M456.882 736.268C445.135 736.268 435.612 726.745 435.612 714.998C435.612 703.251 445.135 693.728 456.882 693.728C468.629 693.728 478.152 703.251 478.152 714.998C478.152 726.745 468.629 736.268 456.882 736.268Z" fill="#EEEDFF" stroke="black" stroke-width="0.143086"/>
<path d="M270.8 798.791C259.053 798.791 249.53 789.268 249.53 777.52C249.53 765.773 259.053 756.25 270.8 756.25C282.547 756.25 292.07 765.773 292.07 777.52C292.07 789.268 282.547 798.791 270.8 798.791Z" fill="#EEEDFF" stroke="black" stroke-width="0.143086"/>
<path fill-rule="evenodd" clip-rule="evenodd" d="M282.23 389.247C237.351 412.248 155.655 454.282 160.183 546.382C164.608 636.382 213.471 669.331 274.602 695.89C336.966 722.985 444.713 655.904 378.342 554.011C293.186 528.444 215.778 498.596 282.23 389.247V389.247Z" fill="#D9D9D9" stroke="black" stroke-width="0.282222"/>
<path fill-rule="evenodd" clip-rule="evenodd" d="M266.267 403.734C238.933 416.819 158.762 452.751 163.29 544.851C167.715 634.851 212.434 671.855 276.184 691.307C304.984 700.095 322.708 698.547 342.984 687.639C188.103 662.073 128.729 492.488 266.267 403.734Z" fill="#C8B7B7"/>
</svg>
