<svg width="1000" height="1500" viewBox="0 0 1000 1500" fill="none" xmlns="http://www.w3.org/2000/svg">
<path fill-rule="evenodd" clip-rule="evenodd" d="M679.614 421.905C716.211 456.603 782.783 519.921 752.529 607.028C722.966 692.148 666.807 710.021 600.673 718.311C533.206 726.769 448.68 632.086 541.034 552.978C629.943 552.399 712.622 545.532 679.614 421.905Z" fill="#D9D9D9" stroke="black" stroke-width="0.282222"/>
<path fill-rule="evenodd" clip-rule="evenodd" d="M690.9 440.328C713.45 460.574 780.275 517.607 750.021 604.715C720.458 689.835 667.135 712.765 600.488 713.499C570.378 713.83 553.806 707.358 537.416 691.187C693.235 710.223 797.917 564.188 690.9 440.328Z" fill="#C8B7B7"/>
<path d="M500.371 472.543C303.831 480.399 174.665 654.382 287.687 812.613C296.574 825.055 363.113 758.244 480.538 742.3C608.181 724.968 752.72 740.91 752.72 740.91C767.572 605.73 629.082 467.397 500.371 472.543Z" fill="#9F3116" stroke="black" stroke-width="0.282222"/>
<path fill-rule="evenodd" clip-rule="evenodd" d="M735.287 673.013C735.287 673.013 617.043 604.185 550.691 602.836C511.591 602.04 436.272 628.771 436.272 628.771C436.272 628.771 431.78 563.146 410.337 541.812C394.936 526.49 368.285 516.308 347.787 523.505C295.076 542.013 265.948 606.795 251.675 660.808C244.759 686.981 259.303 741.664 259.303 741.664C426.502 735.157 584.137 739.703 735.287 673.013Z" fill="#6B1602"/>
<path fill-rule="evenodd" clip-rule="evenodd" d="M453.061 483.855C511.805 524.484 585.094 506.308 558.327 721.846H689.527C693.076 601.926 636.207 430.983 453.061 483.855Z" fill="#CAC9D9" stroke="black" stroke-width="0.282222"/>
<path d="M604.902 574.53C593.155 574.53 583.632 565.007 583.632 553.26C583.632 541.512 593.155 531.989 604.902 531.989C616.649 531.989 626.172 541.512 626.172 553.26C626.172 565.007 616.649 574.53 604.902 574.53Z" fill="#EEEDFF" stroke="black" stroke-width="0.143086"/>
<path fill-rule="evenodd" clip-rule="evenodd" d="M752.096 659.301C765.022 684.696 758.198 744.734 758.198 744.734C508.415 723.34 465.118 751.689 247.126 849.999C247.126 849.999 213.775 803.066 213.563 775.246C212.974 697.814 716.609 589.586 752.096 659.301Z" fill="#9392A2" stroke="black" stroke-width="0.282222"/>
<path d="M635.35 712.795C620.557 712.795 608.564 700.802 608.564 686.009C608.564 671.215 620.557 659.223 635.35 659.223C650.144 659.223 662.136 671.215 662.136 686.009C662.136 700.802 650.144 712.795 635.35 712.795Z" fill="#EEEDFF" stroke="black" stroke-width="0.180189"/>
<path d="M456.88 736.268C445.133 736.268 435.61 726.745 435.61 714.998C435.61 703.251 445.133 693.728 456.88 693.728C468.628 693.728 478.151 703.251 478.151 714.998C478.151 726.745 468.628 736.268 456.88 736.268Z" fill="#EEEDFF" stroke="black" stroke-width="0.143086"/>
<path d="M270.798 798.791C259.051 798.791 249.528 789.268 249.528 777.52C249.528 765.773 259.051 756.25 270.798 756.25C282.546 756.25 292.069 765.773 292.069 777.52C292.069 789.268 282.546 798.791 270.798 798.791Z" fill="#EEEDFF" stroke="black" stroke-width="0.143086"/>
<path fill-rule="evenodd" clip-rule="evenodd" d="M282.229 389.247C237.35 412.248 155.654 454.282 160.182 546.382C164.607 636.382 213.47 669.331 274.601 695.89C336.965 722.985 444.713 655.904 378.341 554.011C293.186 528.444 215.778 498.596 282.229 389.247Z" fill="#D9D9D9" stroke="black" stroke-width="0.282222"/>
<path fill-rule="evenodd" clip-rule="evenodd" d="M266.267 403.734C238.932 416.819 158.761 452.751 163.289 544.851C167.714 634.851 212.433 671.855 276.183 691.307C304.984 700.095 322.707 698.547 342.984 687.639C188.102 662.073 128.729 492.488 266.267 403.734Z" fill="#C8B7B7"/>
</svg>
