<svg width="1000" height="1500" viewBox="0 0 1000 1500" fill="none" xmlns="http://www.w3.org/2000/svg">
<path fill-rule="evenodd" clip-rule="evenodd" d="M720.606 430.151C774.411 457.728 863.31 508.048 866.928 618.541C869.33 691.89 808.18 744.105 695.107 805.115C661.399 823.303 525.949 681.359 605.377 627.687C679.537 577.574 800.275 561.25 720.606 430.151V430.151Z" fill="#CFECFB"/>
<path fill-rule="evenodd" clip-rule="evenodd" d="M735.856 446.325C768.628 462.013 845.902 493.869 827.337 602.852C807.688 718.192 671.538 804.132 664.007 795.095C664.007 795.095 649.535 782.454 628.557 770.71C730.747 700.766 868.466 537.54 735.856 446.325Z" fill="#A4D4E6"/>
<path fill-rule="evenodd" clip-rule="evenodd" d="M739.816 447.528C941.211 522.928 885.027 747.759 681.291 800.295C681.291 800.295 672.149 800.979 647.84 787.902C803.416 753.063 883.67 551.074 739.816 447.528V447.528Z" fill="#7CA9BF"/>
<path d="M198.716 701.178C182.057 781.334 192.145 860.178 189.424 994.977C187.14 1108.13 491.945 1206.31 531.352 1204.28C539.83 1203.84 572.016 980.459 572.016 980.459C504.374 958.335 364.65 901.153 364.65 901.153L385.29 788.666C489.897 846.78 610.561 903.836 727.505 823.931L734.053 949.315C717.076 963.86 699.238 978.26 652.752 987.887L643.316 1195.02C645.635 1206.61 789.572 1127.78 777.987 1092.1C773.069 1076.96 775.95 932.642 776.003 913.034C776.202 839.534 805.898 763.672 780.632 699.947C651.952 375.404 241.235 496.597 198.716 701.178V701.178Z" fill="#8791B4"/>
<path d="M222.111 782.476C181.54 748.295 183.254 679.513 225.94 628.846C268.626 578.179 336.119 564.814 376.69 598.994C417.261 633.174 415.547 701.956 372.861 752.624C330.175 803.291 262.682 816.656 222.111 782.476Z" fill="#BA4B00"/>
<path fill-rule="evenodd" clip-rule="evenodd" d="M223.025 400C169.219 427.576 80.3208 477.896 76.7027 588.39C74.3009 661.739 135.451 713.953 248.524 774.964C282.232 793.152 417.682 651.207 338.254 597.535C264.094 547.423 143.356 531.099 223.025 400V400Z" fill="#CFECFB"/>
<path fill-rule="evenodd" clip-rule="evenodd" d="M207.775 416.18C175.003 431.867 97.7284 463.724 116.294 572.706C135.943 688.046 272.093 773.986 279.624 764.949C279.624 764.949 294.096 752.309 315.074 740.564C212.883 670.62 75.1645 507.394 207.775 416.18Z" fill="#A4D4E6"/>
<path fill-rule="evenodd" clip-rule="evenodd" d="M203.815 417.377C2.42028 492.777 58.6041 717.607 262.339 770.144C262.339 770.144 271.481 770.827 295.791 757.751C140.215 722.911 59.9613 520.923 203.815 417.377V417.377Z" fill="#7CA9BF"/>
<path fill-rule="evenodd" clip-rule="evenodd" d="M643.297 1189.13L603.725 1167.46L615.031 963.948C659.866 954.309 680.117 948.276 696.06 937.567L694.175 841.464L734.689 816.024L733.748 948.873C717.752 970.916 688.575 980.954 652.719 985.619L643.297 1189.13Z" fill="#5B6482"/>
<path fill-rule="evenodd" clip-rule="evenodd" d="M570.066 953.952L390.231 888.714L405.438 800.382L382.687 794.926L365.866 903.351L565.684 981.173L570.066 953.952Z" fill="#5B6482"/>
</svg>
