<svg width="1400" height="1100" viewBox="0 0 1400 1100" fill="none" xmlns="http://www.w3.org/2000/svg">
<path d="M808.402 473.094C808.455 471.954 807.545 471 806.404 471H636.866C635.628 471 634.688 472.113 634.894 473.333L704.248 884.329C704.41 885.291 705.244 885.996 706.22 885.996H787.121C788.189 885.996 789.069 885.157 789.119 884.09L808.402 473.094Z" fill="#F8B68A"/>
<path d="M448.135 473.627C448.062 472.475 448.977 471.5 450.131 471.5H667.414C668.723 471.5 669.679 472.736 669.35 474.003L559.889 895.503C559.66 896.384 558.864 897 557.953 897H476.877C475.822 897 474.948 896.18 474.881 895.127L448.135 473.627Z" fill="#F8B68A"/>
<path d="M790.029 828.996C790.029 826.787 788.238 824.996 786.029 824.996H698.832C696.333 824.996 694.446 827.261 694.898 829.719L725.427 995.719C725.776 997.617 727.431 998.996 729.361 998.996H786.029C788.238 998.996 790.029 997.205 790.029 994.996V828.996Z" fill="#F8B68A"/>
<path d="M816.048 565.083L839.092 753.256C840.638 765.875 830.792 777 818.079 777C809.277 777 801.394 771.554 798.279 763.322L728.846 579.823C727.7 576.796 724.801 574.793 721.565 574.793C717.527 574.793 714.16 577.881 713.81 581.903L698.741 755.08C697.662 767.482 687.28 777 674.832 777H426.997C412.28 777 401.03 763.876 403.28 749.331L431.894 564.331C433.704 552.632 443.774 544 455.612 544H792.226C804.352 544 814.574 553.046 816.048 565.083Z" fill="#867459"/>
<path d="M816.472 565.129L838.762 750.129C840.484 764.419 829.328 777 814.935 777H759H738H719H697.426H500.942C486.592 777 475.449 764.491 477.101 750.237L498.539 565.237C499.942 553.132 510.193 544 522.379 544H792.644C804.788 544 815.019 553.072 816.472 565.129Z" fill="#A08863"/>
<path d="M1167.13 410.308C1184.49 380.457 1165.5 342.695 1131.64 335.864C1022.02 313.743 952.788 272.046 875.871 185.021C853.327 159.515 811.921 162.124 794.804 191.548L792.615 195.312C782.07 213.439 784.466 236.399 798.938 251.576C899.867 357.419 976.681 404.324 1114.63 435.792C1134.61 440.349 1155.08 431.022 1165.38 413.31L1167.13 410.308Z" fill="#AA977B"/>
<path d="M712.939 119.389L826.5 159.813C839.139 164.311 845.635 178.297 840.921 190.856L816.728 255.315C815.936 257.428 815.445 259.641 815.27 261.891L795.735 513.573C794.772 525.98 784.485 535.593 772.041 535.714L435.533 539C435.533 539 453 462.5 447.5 421C442.414 382.627 389.023 283.123 384.168 250.558C383.527 246.259 383.182 241.854 381.634 237.792L364.471 192.759C359.418 179.499 366.91 164.773 380.604 161.052L535.944 118.84C537.996 118.282 540.112 118 542.238 118H704.891C707.633 118 710.356 118.47 712.939 119.389Z" fill="#867459"/>
<path d="M712.905 119.161L831.228 160.852C838.607 163.452 844.25 169.463 846.067 177.072C850.278 194.706 857.448 228.96 858.499 261.5C860.001 308 850.999 331 831.999 356.5C812.999 382 807.999 422 813.033 543.297C813.726 559.986 498.531 543.297 498.531 543.297C498.531 543.297 510.47 457.5 504.5 422C498.746 387.781 441.834 292.706 435.494 245.586C435.043 242.233 434.197 238.946 432.644 235.94L415.491 202.741C409.224 190.612 414.323 175.706 426.705 169.957L534.226 120.029C537.393 118.559 540.843 117.797 544.334 117.797H704.929C707.645 117.797 710.342 118.258 712.905 119.161Z" fill="#A08863"/>
<path d="M565 304C620.083 324.492 649.753 325.463 699.998 304C699.998 304 701.356 337.518 637.556 338.958C573.756 340.399 565 304 565 304Z" fill="#867459"/>
<path d="M738 304C784.515 324.492 809.569 325.463 851.998 304C851.998 304 853.145 337.518 799.269 338.958C745.394 340.399 738 304 738 304Z" fill="#867459"/>
<path d="M810.5 469C690.833 469.833 448.9 471 446.5 471L433.5 558.5C585.983 552.086 658.5 667 711 665.5C763.5 664 784.575 569.386 815.5 558.5L810.5 469Z" fill="#74644B"/>
<path d="M709.035 84H539.035V118H686.031H709.035V84Z" fill="#1A1B1F"/>
<path d="M812 437H450.843L448 471H811L812 437Z" fill="#1A1B1F"/>
<path d="M292.507 584.503C325.835 593.55 357.394 565.427 355.23 530.961C348.225 419.344 370.583 341.681 434.735 244.861C453.537 216.485 440.3 177.164 407.448 168.246L403.246 167.106C383.008 161.612 361.45 169.869 350.536 187.776C274.421 312.659 248.996 398.996 254.304 540.392C255.073 560.868 269.38 578.225 289.156 583.593L292.507 584.503Z" fill="#AA977B"/>
<path d="M471.588 838.585C471.54 836.343 473.344 834.5 475.587 834.5H570.316C572.937 834.5 574.85 836.979 574.185 839.514L533.147 996.01C532.686 997.769 531.097 998.996 529.278 998.996H478.946C476.771 998.996 474.994 997.257 474.947 995.082L471.588 838.585Z" fill="#F8B68A"/>
<path d="M1127.44 297.6L1199.84 344.764L1185.98 431.294L1102.48 453.492C1087.37 389.13 1082.84 353.596 1127.44 297.6Z" fill="#171717"/>
<circle cx="1217.97" cy="391.911" r="62.9274" transform="rotate(-16.4156 1217.97 391.911)" fill="#1A1B1F"/>
<path d="M380.384 491.645L353.563 573.777L266.395 582.787L223.342 507.878C281.6 476.622 314.75 463.049 380.384 491.645Z" fill="#171717"/>
<circle cx="312.719" cy="603.499" r="62.9274" transform="rotate(58.5844 312.719 603.499)" fill="#1A1B1F"/>
</svg>
