<svg width="1000" height="1000" viewBox="0 0 1000 1000" fill="none" xmlns="http://www.w3.org/2000/svg">
<rect width="509.001" height="670.74" rx="254.5" transform="matrix(-1 0 0 1 754 164)" fill="#F7AB78"/>
<rect width="452" height="671" rx="226" transform="matrix(-1 0 0 1 750 164)" fill="#F8B68A"/>
<path d="M642.209 512.074C622.505 512.074 606.531 526.983 606.531 545.373H677.887C677.887 526.983 661.913 512.074 642.209 512.074Z" fill="#161616"/>
<path d="M696.974 522.248C690.44 521.595 683.842 522.235 677.556 524.132C671.27 526.029 665.419 529.145 660.337 533.303L667.784 542.404C671.67 539.224 676.145 536.84 680.953 535.389C685.761 533.939 690.807 533.449 695.804 533.949L696.974 522.248Z" fill="#161616"/>
<path d="M689.974 503.248C683.44 502.595 676.842 503.235 670.556 505.132C664.27 507.029 658.419 510.145 653.337 514.303L660.784 523.404C664.67 520.224 669.145 517.84 673.953 516.389C678.761 514.939 683.807 514.449 688.804 514.949L689.974 503.248Z" fill="#161616"/>
<path d="M642.209 578.301C661.913 578.301 677.887 563.392 677.887 545.002L606.531 545.002C606.531 563.392 622.505 578.301 642.209 578.301Z" fill="#161616"/>
<path d="M490.791 512.074C510.495 512.074 526.469 526.983 526.469 545.373H455.113C455.113 526.983 471.087 512.074 490.791 512.074Z" fill="#161616"/>
<path d="M436.026 522.248C442.56 521.595 449.158 522.235 455.444 524.132C461.73 526.029 467.581 529.145 472.663 533.303L465.216 542.404C461.33 539.224 456.855 536.84 452.047 535.389C447.239 533.939 442.193 533.449 437.196 533.949L436.026 522.248Z" fill="#161616"/>
<path d="M443.026 503.248C449.56 502.595 456.158 503.235 462.444 505.132C468.73 507.029 474.581 510.145 479.663 514.303L472.216 523.404C468.33 520.224 463.855 517.84 459.047 516.389C454.239 514.939 449.193 514.449 444.196 514.949L443.026 503.248Z" fill="#161616"/>
<path d="M490.791 578.301C471.087 578.301 455.113 563.392 455.113 545.002L526.469 545.002C526.469 563.392 510.495 578.301 490.791 578.301Z" fill="#161616"/>
<path d="M621 633C621 639.566 619.707 646.068 617.194 652.134C614.681 658.2 610.998 663.712 606.355 668.355C601.712 672.998 596.2 676.681 590.134 679.194C584.068 681.707 577.566 683 571 683C564.434 683 557.932 681.707 551.866 679.194C545.8 676.681 540.288 672.998 535.645 668.355C531.002 663.712 527.319 658.2 524.806 652.134C522.293 646.068 521 639.566 521 633L532.759 633C532.759 638.022 533.748 642.995 535.67 647.634C537.592 652.274 540.409 656.489 543.96 660.04C547.511 663.591 551.726 666.408 556.366 668.33C561.005 670.252 565.978 671.241 571 671.241C576.022 671.241 580.995 670.252 585.634 668.33C590.274 666.408 594.489 663.591 598.04 660.04C601.591 656.489 604.408 652.274 606.33 647.634C608.252 642.995 609.241 638.022 609.241 633H621Z" fill="#B81A2D"/>
</svg>
