<svg width="1000" height="1500" viewBox="0 0 1000 1500" fill="none" xmlns="http://www.w3.org/2000/svg">
<g clip-path="url(#clip0_534_705)">
<path d="M543.276 599.1C545.362 598.324 546.033 595.589 544.421 594.055L401.649 458.095C400.93 457.41 399.869 457.136 398.899 457.349C87.0482 526.046 180.615 878.703 212.777 1083.57C212.921 1084.49 213.48 1085.26 214.297 1085.71L427 1202C446.467 1190.52 315.932 892.992 394.596 798.966C394.858 798.654 395.057 798.285 395.176 797.895C425.345 699.311 390.593 655.901 543.276 599.1Z" fill="#A15B18"/>
<path d="M742.999 774C758.499 859 753.999 922.5 753.999 922.5C753.999 922.5 776.49 841.5 776.49 755C776.49 668.5 775.501 411.5 400.001 457L547.131 597.172C547.689 597.704 548.448 597.999 549.219 598.003C673.27 598.593 727.55 689.277 742.999 774Z" fill="#8D4B0C"/>
</g>
<defs>
<clipPath id="clip0_534_705">
<rect width="1000" height="1500" fill="white"/>
</clipPath>
</defs>
</svg>
