<svg width="1000" height="1000" viewBox="0 0 1000 1000" fill="none" xmlns="http://www.w3.org/2000/svg">
<rect width="509.001" height="670.74" rx="254.5" transform="matrix(-1 0 0 1 754.001 0)" fill="#F7AB78"/>
<rect width="452" height="671" rx="226" transform="matrix(-1 0 0 1 750 0)" fill="#F8B68A"/>
<path d="M696.975 358.248C690.441 357.595 683.843 358.235 677.557 360.132C671.271 362.029 665.42 365.145 660.338 369.303L667.785 378.404C671.671 375.224 676.146 372.84 680.954 371.389C685.762 369.939 690.808 369.449 695.805 369.949L696.975 358.248Z" fill="#161616"/>
<path d="M689.975 339.248C683.441 338.595 676.843 339.235 670.557 341.132C664.271 343.029 658.42 346.145 653.338 350.303L660.785 359.404C664.671 356.224 669.146 353.84 673.954 352.389C678.762 350.939 683.808 350.449 688.805 350.949L689.975 339.248Z" fill="#161616"/>
<path d="M436.027 358.248C442.561 357.595 449.159 358.235 455.445 360.132C461.731 362.029 467.582 365.145 472.664 369.303L465.217 378.404C461.331 375.224 456.856 372.84 452.048 371.389C447.24 369.939 442.194 369.449 437.197 369.949L436.027 358.248Z" fill="#161616"/>
<path d="M443.027 339.248C449.561 338.595 456.159 339.235 462.445 341.132C468.731 343.029 474.582 346.145 479.664 350.303L472.217 359.404C468.331 356.224 463.856 353.84 459.048 352.389C454.24 350.939 449.194 350.449 444.197 350.949L443.027 339.248Z" fill="#161616"/>
<ellipse cx="642.5" cy="382" rx="35.5" ry="33" fill="#161616"/>
<ellipse cx="490.5" cy="382" rx="35.5" ry="33" fill="#161616"/>
<path d="M621 469C621 475.566 619.707 482.068 617.194 488.134C614.681 494.2 610.998 499.712 606.355 504.355C601.712 508.998 596.2 512.681 590.134 515.194C584.068 517.707 577.566 519 571 519C564.434 519 557.932 517.707 551.866 515.194C545.8 512.681 540.288 508.998 535.645 504.355C531.002 499.712 527.319 494.2 524.806 488.134C522.293 482.068 521 475.566 521 469H532.759C532.759 474.022 533.748 478.995 535.67 483.634C537.592 488.274 540.409 492.489 543.96 496.04C547.511 499.591 551.726 502.408 556.366 504.33C561.005 506.252 565.978 507.241 571 507.241C576.022 507.241 580.995 506.252 585.634 504.33C590.274 502.408 594.489 499.591 598.04 496.04C601.591 492.489 604.408 488.274 606.33 483.634C608.252 478.995 609.241 474.022 609.241 469H621Z" fill="#B81A2D"/>
</svg>
