<svg width="1000" height="1137" viewBox="0 0 1000 1137" fill="none" xmlns="http://www.w3.org/2000/svg">
<path d="M573.276 534.1C575.362 533.324 576.033 530.589 574.421 529.055L431.649 393.095C430.93 392.41 429.869 392.136 428.899 392.349C117.048 461.046 210.615 813.703 242.777 1018.57C242.921 1019.49 243.48 1020.26 244.298 1020.71L457 1137C476.467 1125.52 345.932 827.992 424.597 733.966C424.858 733.654 425.058 733.285 425.177 732.895C455.345 634.311 420.593 590.901 573.276 534.1Z" fill="#A15B18"/>
<path d="M772.999 709C788.499 794 783.999 857.5 783.999 857.5C783.999 857.5 806.49 776.5 806.49 690C806.491 603.5 806.001 346 430.501 391.5L584.636 534.698C585.191 535.213 585.941 535.499 586.698 535.503C710.715 536.067 757.549 624.273 772.999 709Z" fill="#8D4B0C"/>
</svg>
