<svg width="2002" height="1500" viewBox="0 0 2002 1500" fill="none" xmlns="http://www.w3.org/2000/svg">
<path d="M1182.4 974.094C1182.46 972.954 1181.55 972 1180.4 972H1010.87C1009.63 972 1008.69 973.113 1008.89 974.333L1078.25 1385.33C1078.41 1386.29 1079.24 1387 1080.22 1387H1161.12C1162.19 1387 1163.07 1386.16 1163.12 1385.09L1182.4 974.094Z" fill="#F8B68A"/>
<path d="M822.135 974.627C822.062 973.475 822.977 972.5 824.131 972.5H1041.41C1042.72 972.5 1043.68 973.736 1043.35 975.003L933.889 1396.5C933.66 1397.38 932.864 1398 931.953 1398H850.877C849.822 1398 848.948 1397.18 848.881 1396.13L822.135 974.627Z" fill="#F8B68A"/>
<path d="M1164.03 1330C1164.03 1327.79 1162.24 1326 1160.03 1326H1072.83C1070.33 1326 1068.45 1328.26 1068.9 1330.72L1099.43 1496.72C1099.78 1498.62 1101.43 1500 1103.36 1500H1160.03C1162.24 1500 1164.03 1498.21 1164.03 1496V1330Z" fill="#F8B68A"/>
<path d="M1190.05 1066.08L1213.09 1254.26C1214.64 1266.87 1204.79 1278 1192.08 1278C1183.28 1278 1175.39 1272.55 1172.28 1264.32L1102.85 1080.82C1101.7 1077.8 1098.8 1075.79 1095.56 1075.79C1091.53 1075.79 1088.16 1078.88 1087.81 1082.9L1072.74 1256.08C1071.66 1268.48 1061.28 1278 1048.83 1278H800.997C786.28 1278 775.03 1264.88 777.28 1250.33L805.894 1065.33C807.704 1053.63 817.774 1045 829.612 1045H1166.23C1178.35 1045 1188.57 1054.05 1190.05 1066.08Z" fill="#867459"/>
<path d="M1190.47 1066.13L1212.76 1251.13C1214.48 1265.42 1203.33 1278 1188.93 1278H1133H1112H1093H1071.43H874.942C860.592 1278 849.449 1265.49 851.101 1251.24L872.539 1066.24C873.942 1054.13 884.193 1045 896.379 1045H1166.64C1178.79 1045 1189.02 1054.07 1190.47 1066.13Z" fill="#A08863"/>
<path d="M1541.13 911.308C1558.49 881.458 1539.5 843.696 1505.64 836.865C1396.02 814.743 1326.79 773.046 1249.87 686.021C1227.33 660.515 1185.92 663.125 1168.8 692.549L1166.62 696.312C1156.07 714.439 1158.47 737.4 1172.94 752.577C1273.87 858.42 1350.68 905.325 1488.63 936.793C1508.61 941.35 1529.08 932.022 1539.38 914.31L1541.13 911.308Z" fill="#AA977B"/>
<path d="M1086.94 620.39L1200.5 660.813C1213.14 665.312 1219.64 679.297 1214.92 691.857L1190.73 756.315C1189.94 758.428 1189.44 760.642 1189.27 762.891L1169.74 1014.57C1168.77 1026.98 1158.49 1036.59 1146.04 1036.71L809.533 1040C809.533 1040 827 963.5 821.5 922C816.415 883.627 763.023 784.123 758.168 751.558C757.527 747.259 757.183 742.854 755.634 738.793L738.471 693.759C733.418 680.499 740.911 665.773 754.604 662.052L909.945 619.84C911.996 619.282 914.112 619 916.238 619H1078.89C1081.63 619 1084.36 619.47 1086.94 620.39Z" fill="#867459"/>
<path d="M1086.91 620.161L1205.23 661.852C1212.61 664.452 1218.25 670.463 1220.07 678.072C1224.28 695.706 1231.45 729.96 1232.5 762.5C1234 809 1225 832 1206 857.5C1187 883 1182 923 1187.03 1044.3C1187.73 1060.99 872.531 1044.3 872.531 1044.3C872.531 1044.3 884.471 958.5 878.501 923C872.747 888.781 815.835 793.706 809.495 746.586C809.043 743.233 808.198 739.946 806.644 736.94L789.492 703.741C783.225 691.612 788.324 676.706 800.706 670.957L908.227 621.029C911.394 619.559 914.843 618.797 918.335 618.797H1078.93C1081.65 618.797 1084.34 619.258 1086.91 620.161Z" fill="#A08863"/>
<path d="M939 805C994.083 825.492 1023.75 826.463 1074 805C1074 805 1075.36 838.518 1011.56 839.958C947.756 841.399 939 805 939 805Z" fill="#867459"/>
<path d="M1112 805C1158.51 825.492 1183.57 826.463 1226 805C1226 805 1227.15 838.518 1173.27 839.958C1119.39 841.399 1112 805 1112 805Z" fill="#867459"/>
<path d="M1184.5 970C1064.83 970.833 822.9 972 820.5 972L807.5 1059.5C959.983 1053.09 1032.5 1168 1085 1166.5C1137.5 1165 1158.58 1070.39 1189.5 1059.5L1184.5 970Z" fill="#74644B"/>
<path d="M1083.04 585H913.036V619H1060.03H1083.04V585Z" fill="#1A1B1F"/>
<path d="M1186 938H824.844L822 972H1185L1186 938Z" fill="#1A1B1F"/>
<path d="M666.507 1085.5C699.835 1094.55 731.393 1066.43 729.23 1031.96C722.225 920.344 744.583 842.681 808.734 745.861C827.537 717.485 814.3 678.164 781.448 669.246L777.246 668.106C757.008 662.612 735.449 670.869 724.535 688.776C648.421 813.659 622.995 899.996 628.304 1041.39C629.073 1061.87 643.38 1079.22 663.155 1084.59L666.507 1085.5Z" fill="#AA977B"/>
<path d="M845.587 1339.59C845.539 1337.34 847.343 1335.5 849.586 1335.5H944.315C946.936 1335.5 948.849 1337.98 948.184 1340.51L907.147 1497.01C906.685 1498.77 905.096 1500 903.278 1500H852.946C850.77 1500 848.993 1498.26 848.946 1496.08L845.587 1339.59Z" fill="#F8B68A"/>
</svg>
