<svg width="2002" height="1500" viewBox="0 0 2002 1500" fill="none" xmlns="http://www.w3.org/2000/svg">
<path d="M1182.4 974.094C1182.46 972.954 1181.55 972 1180.4 972H1010.87C1009.63 972 1008.69 973.116 1008.9 974.337L1079.22 1385.33C1079.38 1386.29 1080.21 1387 1081.19 1387H1161.12C1162.19 1387 1163.07 1386.16 1163.12 1385.09L1182.4 974.094Z" fill="#F8B68A"/>
<path d="M822.135 974.627C822.062 973.475 822.977 972.5 824.131 972.5H1041.41C1042.72 972.5 1043.68 973.736 1043.35 975.003L933.889 1396.5C933.66 1397.38 932.864 1398 931.953 1398H850.877C849.822 1398 848.948 1397.18 848.881 1396.13L822.135 974.627Z" fill="#F8B68A"/>
<path d="M1166.44 1330.05C1166.47 1327.82 1164.67 1326 1162.44 1326H1072.83C1070.33 1326 1068.45 1328.26 1068.9 1330.72L1099.43 1496.72C1099.78 1498.62 1101.43 1500 1103.36 1500H1160.09C1162.27 1500 1164.05 1498.24 1164.09 1496.05L1166.44 1330.05Z" fill="#F8B68A"/>
<path d="M1190.05 1066.08L1213.09 1254.26C1214.64 1266.87 1204.79 1278 1192.08 1278C1183.28 1278 1175.39 1272.55 1172.28 1264.32L1102.85 1080.82C1101.7 1077.8 1098.8 1075.79 1095.56 1075.79C1091.53 1075.79 1088.16 1078.88 1087.81 1082.9L1072.74 1256.08C1071.66 1268.48 1061.28 1278 1048.83 1278H800.997C786.28 1278 775.03 1264.88 777.28 1250.33L805.894 1065.33C807.704 1053.63 817.774 1045 829.612 1045H1166.23C1178.35 1045 1188.57 1054.05 1190.05 1066.08Z" fill="#867459"/>
<path d="M1190.47 1066.13L1212.76 1251.13C1214.48 1265.42 1203.33 1278 1188.93 1278H1133L1099.43 1277.96H1080.43L1071.43 1278H874.942C860.592 1278 849.449 1265.49 851.101 1251.24L872.539 1066.24C873.942 1054.13 884.193 1045 896.379 1045H1166.64C1178.79 1045 1189.02 1054.07 1190.47 1066.13Z" fill="#A08863"/>
<path d="M1531.13 911.308C1548.49 881.457 1529.5 843.695 1495.64 836.864C1386.02 814.743 1316.79 773.046 1239.87 686.021C1217.33 660.515 1175.92 663.124 1158.8 692.548L1156.62 696.312C1146.07 714.439 1148.47 737.4 1162.94 752.576C1263.87 858.419 1340.68 905.324 1478.63 936.792C1498.61 941.349 1519.08 932.022 1529.38 914.31L1531.13 911.308Z" fill="#AA977B"/>
<path d="M1463.14 801.05L1535.53 848.214L1521.67 934.743L1438.17 956.942C1423.06 892.579 1418.53 857.046 1463.14 801.05Z" fill="#171717"/>
<circle cx="1553.67" cy="895.36" r="62.9274" transform="rotate(-16.4156 1553.67 895.36)" fill="#28292F"/>
<path d="M1086.94 620.389L1200.5 660.813C1213.14 665.311 1219.64 679.297 1214.92 691.856L1190.73 756.315C1189.94 758.428 1189.44 760.641 1189.27 762.891L1169.74 1014.57C1168.77 1026.98 1158.49 1036.59 1146.04 1036.72L811 1040C811 1040 827 963.5 821.5 922C816.415 883.627 763.023 784.123 758.168 751.558C757.527 747.259 757.183 742.854 755.634 738.792L738.471 693.759C733.418 680.499 740.911 665.773 754.604 662.052L909.945 619.84C911.996 619.282 914.112 619 916.238 619H1078.89C1081.63 619 1084.36 619.47 1086.94 620.389Z" fill="#867459"/>
<path d="M1086.91 620.161L1205.23 661.852C1212.61 664.452 1218.25 670.463 1220.07 678.072C1224.28 695.706 1231.45 729.96 1232.5 762.5C1234 809 1225 832 1206 857.5C1187 883 1182 923 1187.03 1044.3C1187.73 1060.99 872.531 1044.3 872.531 1044.3C872.531 1044.3 884.471 958.5 878.501 923C872.747 888.781 815.835 793.706 809.495 746.586C809.043 743.233 808.198 739.946 806.644 736.94L789.492 703.741C783.225 691.612 788.324 676.706 800.706 670.957L908.227 621.029C911.394 619.559 914.843 618.797 918.335 618.797H1078.93C1081.65 618.797 1084.34 619.258 1086.91 620.161Z" fill="#A08863"/>
<path d="M939 805C994.083 825.492 1023.75 826.463 1074 805C1074 805 1075.36 838.518 1011.56 839.958C947.756 841.399 939 805 939 805Z" fill="#867459"/>
<path d="M1112 805C1158.51 825.492 1183.57 826.463 1226 805C1226 805 1227.15 838.518 1173.27 839.958C1119.39 841.399 1112 805 1112 805Z" fill="#867459"/>
<path d="M1185 970C1065.33 970.833 822.9 972 820.5 972L807.5 1059.5C959.983 1053.09 1032.5 1168 1085 1166.5C1137.5 1165 1158.58 1070.39 1189.5 1059.5L1185 970Z" fill="#74644B"/>
<path d="M1083.04 585H913.036V619H1060.03H1083.04V585Z" fill="#1A1B1F"/>
<path d="M1186.5 938H822.5L821.183 972H1185.5L1186.5 938Z" fill="#1A1B1F"/>
<path d="M666.507 1085.5C699.835 1094.55 731.393 1066.43 729.23 1031.96C722.225 920.344 744.583 842.681 808.734 745.861C827.537 717.485 814.3 678.164 781.448 669.246L777.246 668.106C757.008 662.612 735.449 670.869 724.535 688.776C648.421 813.659 622.995 899.996 628.304 1041.39C629.073 1061.87 643.38 1079.22 663.155 1084.59L666.507 1085.5Z" fill="#AA977B"/>
<path d="M755.407 991.309L728.586 1073.44L641.418 1082.45L598.365 1007.54C656.623 976.286 689.773 962.713 755.407 991.309Z" fill="#171717"/>
<circle cx="687.742" cy="1103.16" r="62.9274" transform="rotate(58.5844 687.742 1103.16)" fill="#28292F"/>
<path d="M844.613 1339.61C844.551 1337.36 846.36 1335.5 848.612 1335.5H946.255C948.895 1335.5 950.811 1338.01 950.112 1340.56L907.171 1497.05C906.694 1498.79 905.115 1500 903.314 1500H852.922C850.756 1500 848.983 1498.27 848.923 1496.11L844.613 1339.61Z" fill="#F8B68A"/>
</svg>
