<svg width="2002" height="1500" viewBox="0 0 2002 1500" fill="none" xmlns="http://www.w3.org/2000/svg">
<path d="M1573.13 909.308C1590.49 879.458 1571.49 841.696 1537.64 834.865C1428.02 812.743 1358.79 771.046 1281.87 684.021C1259.33 658.515 1217.92 661.125 1200.8 690.549L1198.61 694.312C1188.07 712.439 1190.46 735.4 1204.94 750.577C1305.87 856.42 1382.68 903.325 1520.63 934.793C1540.61 939.35 1561.08 930.022 1571.38 912.31L1573.13 909.308Z" fill="#AA977B"/>
<path d="M1269 687.349C1269 676.518 1261.75 667.029 1251.3 664.188L1088.09 619.84C1086.04 619.282 1083.93 619 1081.8 619H918.206C916.08 619 913.964 619.282 911.913 619.84L748.71 664.188C738.258 667.029 731.003 676.518 731.003 687.349V759.656C731.003 761.875 731.311 764.083 731.918 766.217L809.304 1038.52C810.418 1042.44 810.515 1046.58 809.585 1050.55L737.908 1356.53C734.38 1371.58 745.809 1386 761.275 1386H1238.72C1254.19 1386 1265.62 1371.58 1262.09 1356.52L1190.42 1051.05C1189.49 1047.08 1189.58 1042.94 1190.7 1039.02L1268.09 766.212C1268.7 764.081 1269 761.876 1269 759.661V687.349Z" fill="#867459"/>
<path d="M1269 687.349C1269 676.518 1261.75 667.029 1251.29 664.188L1088.09 619.84C1086.04 619.282 1083.92 619 1081.8 619H919.456C916.511 619 913.59 619.542 910.841 620.6L800.385 663.083C791.116 666.648 785 675.553 785 685.483V759.981C785 761.986 785.251 763.983 785.748 765.925L855.585 1039.08C856.496 1042.65 856.576 1046.37 855.817 1049.97L791.101 1357.05C787.957 1371.97 799.339 1386 814.585 1386H1238.66C1254.15 1386 1265.58 1371.55 1262.02 1356.48L1189.94 1051.59C1189 1047.6 1189.09 1043.43 1190.21 1039.49L1268.08 766.224C1268.69 764.085 1269 761.872 1269 759.647V687.349Z" fill="#A08863"/>
<path d="M1085 585H915.003V619H1085V585Z" fill="#1A1B1F"/>
<path d="M1191.5 1036L808.5 1035.5C809.812 1042.71 809.638 1050.18 807.967 1057.32L805 1070H1195L1193.62 1066.36C1189.96 1056.67 1189.22 1046.11 1191.5 1036Z" fill="#1A1B1F"/>
<path d="M639.507 1085.51C672.835 1094.56 704.394 1066.44 702.23 1031.97C695.225 920.356 717.583 842.693 781.735 745.873C800.537 717.496 787.3 678.176 754.448 669.258L750.246 668.117C730.008 662.623 708.45 670.881 697.536 688.788C621.421 813.671 595.996 900.008 601.304 1041.4C602.073 1061.88 616.38 1079.24 636.156 1084.6L639.507 1085.51Z" fill="#AA977B"/>
<path d="M849.997 1390C849.997 1387.79 851.788 1386 853.997 1386H930.867C933.471 1386 935.381 1388.45 934.746 1390.98L908.091 1496.98C907.644 1498.75 906.045 1500 904.212 1500H853.997C851.788 1500 849.997 1498.21 849.997 1496V1390Z" fill="#F8B68A"/>
<path d="M1165 1390C1165 1387.79 1163.21 1386 1161 1386H1084.13C1081.52 1386 1079.61 1388.45 1080.25 1390.98L1106.9 1496.98C1107.35 1498.75 1108.95 1500 1110.78 1500H1161C1163.21 1500 1165 1498.21 1165 1496V1390Z" fill="#F8B68A"/>
</svg>
