<svg width="1400" height="1100" viewBox="0 0 1400 1100" fill="none" xmlns="http://www.w3.org/2000/svg">
<path d="M1195.13 408.309C1212.49 378.458 1193.5 340.696 1159.64 333.865C1050.02 311.743 980.787 270.046 903.87 183.022C881.326 157.516 839.92 160.125 822.803 189.549L820.614 193.312C810.069 211.439 812.465 234.4 826.937 249.577C927.866 355.42 1004.68 402.325 1142.63 433.793C1162.61 438.35 1183.08 429.023 1193.38 411.31L1195.13 408.309Z" fill="#AA977B"/>
<path d="M891.003 186.349C891.003 175.518 883.748 166.029 873.296 163.188L710.094 118.84C708.042 118.282 705.926 118 703.8 118H540.206C538.08 118 535.964 118.282 533.912 118.84L370.709 163.188C360.257 166.029 353.003 175.518 353.003 186.349V258.656C353.003 260.875 353.311 263.083 353.917 265.217L431.303 537.519C432.418 541.442 432.515 545.584 431.585 549.554L359.908 855.526C356.38 870.585 367.808 885 383.275 885H860.721C876.191 885 887.62 870.579 884.086 855.518L812.419 550.052C811.488 546.083 811.583 541.942 812.696 538.02L890.092 265.212C890.696 263.081 891.003 260.876 891.003 258.661V186.349Z" fill="#867459"/>
<path d="M891 186.349C891 175.518 883.746 166.029 873.294 163.188L710.091 118.84C708.039 118.282 705.923 118 703.797 118H541.456C538.511 118 535.59 118.542 532.841 119.6L422.385 162.083C413.116 165.648 407 174.553 407 184.483V258.981C407 260.986 407.251 262.983 407.748 264.925L477.585 538.08C478.496 541.646 478.576 545.373 477.817 548.974L413.101 856.051C409.957 870.969 421.339 885 436.585 885H860.664C876.151 885 887.584 870.55 884.021 855.478L811.939 550.585C810.995 546.595 811.09 542.43 812.214 538.486L890.081 265.224C890.691 263.085 891 260.872 891 258.647V186.349Z" fill="#A08863"/>
<path d="M707.003 84H537.003V118H707.003V84Z" fill="#1A1B1F"/>
<path d="M813.499 535L430.499 534.5V534.5C431.811 541.714 431.637 549.184 429.966 556.324L426.999 569H816.999L815.622 565.362C811.955 555.668 811.216 545.11 813.499 535V535Z" fill="#1A1B1F"/>
<path d="M261.507 584.515C294.835 593.562 326.394 565.438 324.23 530.972C317.225 419.356 339.583 341.693 403.735 244.873C422.537 216.496 409.3 177.176 376.448 168.258L372.246 167.117C352.008 161.623 330.45 169.881 319.536 187.788C243.421 312.671 217.996 399.008 223.304 540.403C224.073 560.88 238.38 578.236 258.156 583.605L261.507 584.515Z" fill="#AA977B"/>
<path d="M471.997 889C471.997 886.791 473.788 885 475.997 885H552.867C555.471 885 557.381 887.45 556.746 889.975L530.091 995.975C529.644 997.754 528.045 999 526.212 999H475.997C473.788 999 471.997 997.209 471.997 995V889Z" fill="#F8B68A"/>
<path d="M786.997 889C786.997 886.791 785.206 885 782.997 885H706.127C703.523 885 701.613 887.45 702.248 889.975L728.903 995.975C729.35 997.754 730.949 999 732.782 999H782.997C785.206 999 786.997 997.209 786.997 995V889Z" fill="#F8B68A"/>
<path d="M1127.45 297.6L1199.84 344.764L1185.98 431.294L1102.48 453.492C1087.37 389.13 1082.84 353.596 1127.45 297.6Z" fill="#171717"/>
<circle cx="1217.97" cy="391.911" r="62.9274" transform="rotate(-16.4156 1217.97 391.911)" fill="#1A1B1F"/>
<path d="M350.383 491.645L323.562 573.777L236.394 582.787L193.341 507.878C251.599 476.622 284.749 463.049 350.383 491.645Z" fill="#171717"/>
<circle cx="282.718" cy="603.499" r="62.9274" transform="rotate(58.5844 282.718 603.499)" fill="#1A1B1F"/>
</svg>
