<svg width="1000" height="1000" viewBox="0 0 1000 1000" fill="none" xmlns="http://www.w3.org/2000/svg">
<rect width="509.001" height="670.74" rx="254.5" transform="matrix(-1 0 0 1 754.001 0)" fill="#F7AB78"/>
<rect width="452" height="671" rx="226" transform="matrix(-1 0 0 1 750 0)" fill="#F8B68A"/>
<path d="M642.211 348.076C622.507 348.076 606.533 362.984 606.533 381.375H677.888C677.888 362.984 661.915 348.076 642.211 348.076Z" fill="#161616"/>
<path d="M642.211 414.299C661.915 414.299 677.889 399.391 677.889 381L606.533 381C606.533 399.391 622.507 414.299 642.211 414.299Z" fill="#161616"/>
<path d="M490.678 414.299C510.382 414.299 526.355 399.391 526.355 381L455 381C455 399.391 470.974 414.299 490.678 414.299Z" fill="#161616"/>
<path d="M489.986 348.076C470.282 348.076 454.309 362.984 454.309 381.375H525.664C525.664 362.984 509.69 348.076 489.986 348.076Z" fill="#161616"/>
<path d="M621 469C621 475.566 619.707 482.068 617.194 488.134C614.681 494.2 610.998 499.712 606.355 504.355C601.712 508.998 596.2 512.681 590.134 515.194C584.068 517.707 577.566 519 571 519C564.434 519 557.932 517.707 551.866 515.194C545.8 512.681 540.288 508.998 535.645 504.355C531.002 499.712 527.319 494.2 524.806 488.134C522.293 482.068 521 475.566 521 469L532.759 469C532.759 474.022 533.748 478.995 535.67 483.634C537.592 488.274 540.409 492.489 543.96 496.04C547.511 499.591 551.726 502.408 556.366 504.33C561.005 506.252 565.978 507.241 571 507.241C576.022 507.241 580.995 506.252 585.634 504.33C590.274 502.408 594.489 499.591 598.04 496.04C601.591 492.489 604.408 488.274 606.33 483.634C608.252 478.995 609.241 474.022 609.241 469H621Z" fill="#B3503B"/>
</svg>
