<svg width="1000" height="1000" viewBox="0 0 1000 1000" fill="none" xmlns="http://www.w3.org/2000/svg">
<rect width="509.001" height="670.74" rx="254.5" transform="matrix(-1 0 0 1 754.001 164)" fill="#F7AB78"/>
<rect width="452" height="671" rx="226" transform="matrix(-1 0 0 1 750 164)" fill="#F8B68A"/>
<path d="M642.211 512.076C622.507 512.076 606.533 526.984 606.533 545.375H677.888C677.888 526.984 661.915 512.076 642.211 512.076Z" fill="#161616"/>
<path d="M642.211 578.299C661.915 578.299 677.889 563.391 677.889 545L606.533 545C606.533 563.391 622.507 578.299 642.211 578.299Z" fill="#161616"/>
<path d="M490.678 578.299C510.382 578.299 526.355 563.391 526.355 545L455 545C455 563.391 470.974 578.299 490.678 578.299Z" fill="#161616"/>
<path d="M489.986 512.076C470.282 512.076 454.309 526.984 454.309 545.375H525.664C525.664 526.984 509.69 512.076 489.986 512.076Z" fill="#161616"/>
<path d="M621 633C621 639.566 619.707 646.068 617.194 652.134C614.681 658.2 610.998 663.712 606.355 668.355C601.712 672.998 596.2 676.681 590.134 679.194C584.068 681.707 577.566 683 571 683C564.434 683 557.932 681.707 551.866 679.194C545.8 676.681 540.288 672.998 535.645 668.355C531.002 663.712 527.319 658.2 524.806 652.134C522.293 646.068 521 639.566 521 633L532.759 633C532.759 638.022 533.748 642.995 535.67 647.634C537.592 652.274 540.409 656.489 543.96 660.04C547.511 663.591 551.726 666.408 556.366 668.33C561.005 670.252 565.978 671.241 571 671.241C576.022 671.241 580.995 670.252 585.634 668.33C590.274 666.408 594.489 663.591 598.04 660.04C601.591 656.489 604.408 652.274 606.33 647.634C608.252 642.995 609.241 638.022 609.241 633H621Z" fill="#B3503B"/>
</svg>
