<svg width="1000" height="1000" viewBox="0 0 1000 1000" fill="none" xmlns="http://www.w3.org/2000/svg">
<rect width="509.001" height="670.74" rx="254.5" transform="matrix(-1 0 0 1 754.001 0)" fill="#F7AB78"/>
<rect width="452" height="671" rx="226" transform="matrix(-1 0 0 1 750 0)" fill="#F8B68A"/>
<ellipse cx="642.5" cy="382" rx="35.5" ry="33" fill="#161616"/>
<ellipse cx="490.5" cy="382" rx="35.5" ry="33" fill="#161616"/>
<path d="M621 469C621 475.566 619.707 482.068 617.194 488.134C614.681 494.2 610.998 499.712 606.355 504.355C601.712 508.998 596.2 512.681 590.134 515.194C584.068 517.707 577.566 519 571 519C564.434 519 557.932 517.707 551.866 515.194C545.8 512.681 540.288 508.998 535.645 504.355C531.002 499.712 527.319 494.2 524.806 488.134C522.293 482.068 521 475.566 521 469H532.759C532.759 474.022 533.748 478.995 535.67 483.634C537.592 488.274 540.409 492.489 543.96 496.04C547.511 499.591 551.726 502.408 556.366 504.33C561.005 506.252 565.978 507.241 571 507.241C576.022 507.241 580.995 506.252 585.634 504.33C590.274 502.408 594.489 499.591 598.04 496.04C601.591 492.489 604.408 488.274 606.33 483.634C608.252 478.995 609.241 474.022 609.241 469H621Z" fill="#B3503B"/>
</svg>
