<svg width="1000" height="1500" viewBox="0 0 1000 1500" fill="none" xmlns="http://www.w3.org/2000/svg">
<path d="M607.212 977.331L655.066 789.305C656.63 783.159 653.829 777.141 648.809 775.864L603.422 764.312C598.403 763.035 593.065 766.982 591.501 773.128L543.648 961.154C542.083 967.3 544.884 973.318 549.904 974.595L595.291 986.147C600.311 987.424 605.648 983.477 607.212 977.331Z" fill="#4A4750" stroke="black" stroke-width="0.221686"/>
<path d="M798.254 90.862L841.169 213.294C841.169 213.294 742.527 594.449 705.929 738.251C704.392 744.288 692.658 746.833 679.819 743.209L629.583 729.03L798.254 90.862Z" fill="#A4D4E6" stroke="black" stroke-width="0.351512"/>
<path d="M788.795 87.7056L692.573 174.727C692.573 174.727 597.004 556.663 560.405 700.466C558.869 706.503 567.959 714.347 580.968 717.302L631.87 728.863L788.795 87.7056Z" fill="#607E8A" stroke="black" stroke-width="0.351512"/>
<path fill-rule="evenodd" clip-rule="evenodd" d="M788.925 146.543L811.254 220.676L679.797 737.195L637.217 726.358L788.925 146.543Z" fill="#86ADBC"/>
<path d="M751.377 755.379L512.132 694.49C504.312 692.499 496.95 694.903 495.688 699.859L484.284 744.67C483.022 749.626 488.34 755.257 496.16 757.247L735.405 818.136C743.225 820.127 750.588 817.723 751.849 812.767L763.253 767.956C764.515 763 759.198 757.369 751.377 755.379Z" fill="#D38A20" stroke="black" stroke-width="0.248472"/>
</svg>
