<svg width="1000" height="1500" viewBox="0 0 1000 1500" fill="none" xmlns="http://www.w3.org/2000/svg">
<path d="M674.264 241.31L648.522 234.88C640.51 232.879 630.623 244.84 626.438 261.596L354.483 1350.4C350.298 1367.16 353.4 1382.36 361.412 1384.36L387.153 1390.79C395.165 1392.79 405.052 1380.83 409.238 1364.08L681.192 275.273C685.378 258.517 682.276 243.311 674.264 241.31Z" fill="#773220" stroke="black" stroke-width="0.282222" stroke-linecap="round"/>
<path fill-rule="evenodd" clip-rule="evenodd" d="M713.941 29.7682C750.787 117.723 744.329 191.514 741.955 266.641L711.005 245.292L696.502 300.948C659.19 312.044 627.56 303.17 600.856 276.99L615.289 220.462L576.744 225.39C612.049 149.885 651.953 78.9208 713.941 29.7682Z" fill="#E9E0D9" stroke="black" stroke-width="0.282222"/>
<path fill-rule="evenodd" clip-rule="evenodd" d="M692.917 113.189C658.098 136.269 637.275 165.76 629.937 198.266C660.764 193.781 681.068 200.084 707.261 218.463C716.483 183.489 708.362 146.942 692.917 113.189Z" fill="#AEA7A2" stroke="black" stroke-width="0.282222"/>
</svg>
