<svg width="1000" height="1500" viewBox="0 0 1000 1500" fill="none" xmlns="http://www.w3.org/2000/svg">
<path d="M525.826 921.694L573.679 733.667C575.244 727.521 572.443 721.503 567.423 720.226L522.036 708.675C517.016 707.397 511.679 711.344 510.115 717.49L462.261 905.516C460.697 911.662 463.498 917.68 468.518 918.957L513.905 930.509C518.924 931.786 524.262 927.84 525.826 921.694Z" fill="#4A4750" stroke="black" stroke-width="0.221686"/>
<path d="M716.869 35.2243L759.785 157.657C759.785 157.657 661.142 538.811 624.544 682.613C623.008 688.65 611.273 691.195 598.435 687.571L548.198 673.392L716.869 35.2243Z" fill="#A4D4E6" stroke="black" stroke-width="0.351512"/>
<path d="M707.408 32.0679L611.186 119.089C611.186 119.089 515.617 501.026 479.019 644.828C477.482 650.865 486.573 658.709 499.582 661.664L550.484 673.226L707.408 32.0679Z" fill="#607E8A" stroke="black" stroke-width="0.351512"/>
<path fill-rule="evenodd" clip-rule="evenodd" d="M707.538 90.905L729.868 165.038L598.411 681.558L555.83 670.721L707.538 90.905Z" fill="#86ADBC"/>
<path d="M669.991 699.741L430.746 638.852C422.926 636.862 415.563 639.266 414.302 644.221L402.898 689.032C401.636 693.988 406.953 699.619 414.774 701.61L654.019 762.499C661.839 764.489 669.201 762.085 670.463 757.129L681.867 712.318C683.128 707.362 677.811 701.731 669.991 699.741Z" fill="#D38A20" stroke="black" stroke-width="0.248472"/>
</svg>
