<svg width="20" height="20" viewBox="0 0 20 20" fill="none" xmlns="http://www.w3.org/2000/svg">
<path d="M10 0.416016C4.36792 0.416016 0 4.08227 0 7.23643V13.2231C0 16.231 4.10667 19.5827 10 19.5827C15.8933 19.5827 20 16.231 20 13.2231V7.23643C20 4.08227 15.6321 0.416016 10 0.416016ZM4.58333 16.6652C2.72958 15.6864 1.66667 14.3152 1.66667 13.2231V10.7569C1.67917 10.7698 1.69458 10.7823 1.70708 10.7952C1.87958 10.9735 2.06167 11.1489 2.25792 11.3193C2.94333 11.9148 3.72708 12.4185 4.58333 12.8314V16.6652ZM9.16708 17.8906H9.16667C8.09542 17.8252 7.12125 17.6314 6.25 17.356V13.5118C6.25667 13.5139 6.26333 13.516 6.27 13.5185C6.34042 13.5423 6.41083 13.5648 6.48083 13.5873C6.6075 13.6277 6.73375 13.666 6.85958 13.7018C6.92792 13.7214 6.99667 13.7414 7.06458 13.7598C7.20167 13.7969 7.33792 13.8302 7.47375 13.8623C7.5275 13.8748 7.58125 13.8889 7.63458 13.9006C7.82167 13.9418 8.00792 13.9789 8.19292 14.0102C8.22958 14.0164 8.26583 14.0206 8.3025 14.0264C8.45167 14.0502 8.60042 14.0719 8.74875 14.0894C8.81375 14.0973 8.87875 14.1027 8.94375 14.1093C9.01792 14.1168 9.09292 14.1264 9.16708 14.1323V17.8906ZM13.75 17.356C12.8787 17.6314 11.9046 17.8252 10.8333 17.8906V14.1323C10.9071 14.1264 10.9812 14.1168 11.055 14.1093C11.1208 14.1027 11.1862 14.0968 11.2521 14.0889C11.3987 14.0714 11.5458 14.0502 11.6933 14.0268C11.7312 14.0206 11.7692 14.0164 11.8071 14.0098C11.9917 13.9785 12.1775 13.9414 12.3637 13.9006C12.4187 13.8885 12.4742 13.8739 12.5296 13.861C12.6633 13.8294 12.7979 13.7964 12.9329 13.7602C13.0021 13.7414 13.0721 13.721 13.1417 13.701C13.2662 13.6652 13.3908 13.6273 13.5167 13.5873C13.5875 13.5648 13.6583 13.5418 13.7296 13.5181C13.7362 13.516 13.7433 13.5139 13.75 13.5114V17.356ZM14.2571 11.5352C14.2567 11.5352 14.2563 11.5356 14.2558 11.5356C12.7396 12.1844 11.3475 12.4993 10 12.4993C8.6525 12.4993 7.26042 12.1843 5.74208 11.5348C5.74167 11.5348 5.74125 11.5343 5.74083 11.5339C4.85417 11.1585 4.02792 10.6489 3.35125 10.0606C2.29625 9.14518 1.66667 8.08935 1.66667 7.23643C1.66667 5.16102 5.16583 2.08268 10 2.08268C14.8342 2.08268 18.3333 5.16102 18.3333 7.23643C18.3333 8.08935 17.7037 9.14518 16.6492 10.061C15.9733 10.6485 15.1479 11.1573 14.26 11.5339C14.2592 11.5343 14.2579 11.5348 14.2571 11.5352ZM18.3333 13.2231C18.3333 14.3152 17.2704 15.6869 15.4167 16.6652V12.8314C16.2738 12.4177 17.0571 11.9143 17.7421 11.3193C17.9383 11.1489 18.1208 10.9731 18.2937 10.7943C18.3062 10.7814 18.3208 10.7694 18.3333 10.7569V13.2231Z" fill="#C98F2C"/>
<path d="M8.41553 3.91626C8.04678 3.64042 7.5247 3.71584 7.24886 4.08292L4.74886 7.41626C4.47261 7.7846 4.5472 8.3071 4.91511 8.58293C5.06511 8.69543 5.24053 8.7496 5.41428 8.7496C5.66761 8.7496 5.91803 8.6346 6.08178 8.41627L8.58178 5.08293C8.85845 4.71459 8.78387 4.19251 8.41553 3.91626Z" fill="#C98F2C"/>
<path d="M10.9155 5.16656C10.5464 4.89031 10.0247 4.96573 9.74886 5.33323L7.24886 8.66656C6.97261 9.03489 7.0472 9.55739 7.41511 9.83323C7.56511 9.94573 7.74053 9.99989 7.91428 9.99989C8.16761 9.99989 8.41803 9.88489 8.58178 9.66656L11.0818 6.33323C11.3584 5.96489 11.2839 5.44281 10.9155 5.16656Z" fill="#C98F2C"/>
</svg>
