<svg width="81" height="107" viewBox="0 0 81 107" fill="none" xmlns="http://www.w3.org/2000/svg">
<path d="M27.2292 33.4369V40.1244H33.8958V33.4369H27.2292ZM40.5625 13.3744H33.8958V20.0619H40.5625V13.3744ZM27.2292 20.0619V26.7494H33.8958V20.0619H27.2292ZM40.5625 26.7494H33.8958V33.4369H40.5625V26.7494ZM77.5625 20.459L60.0833 2.9252C58.2083 1.04434 55.6667 -0.0214844 53.0208 -0.0214844H10.5C4.97917 -0.000585938 0.5 4.49258 0.5 10.0307V96.9682C0.5 102.506 4.97917 106.999 10.5 106.999H70.5C76.0208 106.999 80.5 102.506 80.5 96.9682V27.5645C80.5 24.9103 79.4375 22.3398 77.5625 20.459ZM53.8333 10.8457L69.6875 26.7494H53.8333V10.8457ZM70.5 96.9682H10.5V10.0307H27.1042V13.3744H33.7708V10.0307H43.8333V31.765C43.8333 34.5445 46.0625 36.7807 48.8333 36.7807H70.5V96.9682ZM40.9583 55.5266C40.7292 54.3563 39.7083 53.4994 38.5 53.4994H33.8958V46.8119H27.2292V53.4994L23.125 73.7918C21.75 80.5838 26.9167 86.9369 33.8333 86.9369C40.7292 86.9369 45.8958 80.6256 44.5625 73.8545L40.9583 55.5266ZM33.8958 81.5242C30.1667 81.5242 27.1458 78.9955 27.1458 75.8816C27.1458 72.7678 30.1667 70.2391 33.8958 70.2391C37.625 70.2391 40.6458 72.7678 40.6458 75.8816C40.6458 78.9955 37.625 81.5242 33.8958 81.5242ZM40.5625 40.1244H33.8958V46.8119H40.5625V40.1244Z" fill="#ABA59C"/>
</svg>
