<svg width="170" height="174" viewBox="0 0 170 174" fill="none" xmlns="http://www.w3.org/2000/svg">
<g filter="url(#filter0_d)">
<path d="M93.7874 157.593C86.6208 161.067 78.1934 160.762 71.2822 156.8C20.647 127.776 6.19796 99.5126 10.8084 42.7318C11.565 33.4131 17.5939 25.3241 26.286 21.9852C68.8456 5.63686 97.2866 6.30854 138.77 22.1968C147.247 25.4436 153.239 33.1764 154.297 42.2293C161.518 104.022 146.595 131.999 93.7874 157.593Z" fill="#FAF5F0"/>
</g>
<path d="M48 80.1204C48.126 79.2007 48.2734 78.2822 48.378 77.36C48.8472 73.1767 50.1246 69.1218 52.1405 65.4164C55.6904 58.8299 60.846 53.8729 67.6073 50.5451C71.7352 48.5135 76.1201 47.4254 80.7116 47.076C83.0716 46.9 85.4027 47.051 87.7413 47.3118C88.3562 47.3792 88.651 47.5714 88.5843 48.234C88.5275 48.8043 88.5729 49.3846 88.5729 49.9661C79.5133 48.5834 72.2959 51.3388 67.2255 58.9298C63.8764 63.9526 63.8045 70.3743 64.863 73.6463C65.6391 73.343 66.4216 73.0573 67.1827 72.7228C67.3339 72.6567 67.4662 72.4158 67.4977 72.2374C68.0319 69.2898 69.704 66.965 71.6671 64.8199C74.7443 61.4386 78.5683 58.8066 82.841 57.129C85.4581 56.0945 88.1735 55.8899 90.9418 56.1632C93.7567 56.4419 96.5707 56.7459 99.384 57.0754C100.484 57.2002 101.579 57.3973 102.66 57.6232C103.158 57.7268 103.327 57.5608 103.46 57.1241C104.3 54.3151 105.941 51.8059 108.185 49.8975C110.119 48.2415 112.448 47.5414 114.943 47.3218C115.774 47.2482 116.617 47.2981 117.455 47.2881C117.801 47.2881 118.029 47.3892 117.997 47.7873C117.966 48.1853 118.131 48.6009 117.509 48.7644C116.398 49.0589 115.277 49.3646 114.221 49.8064C110.518 51.3563 109.202 53.9244 109.516 58.1885C109.598 59.2842 109.672 60.3848 109.677 61.483C109.695 65.8918 109.677 70.3006 109.697 74.7107C109.697 75.296 109.556 75.4969 108.941 75.4869C106.736 75.4507 104.531 75.462 102.326 75.4869C101.869 75.4869 101.631 75.3621 101.419 74.9316C99.7809 71.6247 97.8102 68.5423 94.9587 66.1052C92.9175 64.3581 90.6242 63.2051 87.8446 63.2201C84.7512 63.2375 82.487 65.4962 82.3736 68.6497C82.2992 70.6987 83.1523 72.3509 84.4866 73.8247C86.131 75.6404 88.1029 77.048 90.2109 78.276C94.2279 80.6133 98.2688 82.9107 102.276 85.2642C104.947 86.8316 107.362 88.7147 109.332 91.1294C112.525 95.0528 112.728 99.4042 109.784 103.54C106.905 107.584 103.047 110.492 98.6834 112.838C95.4917 114.554 92.0052 115.104 88.5212 115.747C88.4268 115.742 88.3335 115.724 88.244 115.693C88.244 114.741 88.2214 113.773 88.2692 112.808C88.2768 112.668 88.6082 112.492 88.8199 112.425C91.8439 111.451 94.2632 109.679 96.0625 107.094C101.101 99.8247 97.7371 89.6256 89.3289 86.7055C80.8867 83.773 71.9733 89.3611 71.0888 98.1388C70.7989 101.048 71.4684 103.973 72.9971 106.474C74.5258 108.975 76.8314 110.918 79.5687 112.013C79.9543 112.166 80.1206 112.351 80.1068 112.783C80.0728 113.82 80.0954 114.858 80.0954 116C79.4982 115.956 78.94 115.959 78.3982 115.875C64.7748 113.629 55.3472 106.184 50.2126 93.4841C48.9526 90.3819 48.3906 87.0974 48.1525 83.7617C48.1207 83.5423 48.0697 83.326 48 83.1153V80.1204Z" fill="#B57E40"/>
<defs>
<filter id="filter0_d" x="0" y="0" width="170" height="174" filterUnits="userSpaceOnUse" color-interpolation-filters="sRGB">
<feFlood flood-opacity="0" result="BackgroundImageFix"/>
<feColorMatrix in="SourceAlpha" type="matrix" values="0 0 0 0 0 0 0 0 0 0 0 0 0 0 0 0 0 0 127 0"/>
<feOffset dx="2" dy="2"/>
<feGaussianBlur stdDeviation="6"/>
<feColorMatrix type="matrix" values="0 0 0 0 0.137255 0 0 0 0 0.121569 0 0 0 0 0.101961 0 0 0 0.08 0"/>
<feBlend mode="normal" in2="BackgroundImageFix" result="effect1_dropShadow"/>
<feBlend mode="normal" in="SourceGraphic" in2="effect1_dropShadow" result="shape"/>
</filter>
</defs>
</svg>
