<svg width="100" height="20" viewBox="0 0 100 20" fill="none" xmlns="http://www.w3.org/2000/svg">
<path d="M6.04 5.62H8V6.02H6.04V14.32C6.04 14.5867 6.08667 14.7733 6.18 14.88C6.27333 14.9867 6.42667 15.04 6.64 15.04C6.8 15.04 6.98 14.9933 7.18 14.9C7.38 14.8067 7.56 14.66 7.72 14.46L8.02 14.7C7.40667 15.7533 6.46 16.28 5.18 16.28C4.26 16.28 3.57333 16.0533 3.12 15.6C2.84 15.32 2.65333 14.9733 2.56 14.56C2.48 14.1467 2.44 13.5667 2.44 12.82V6.02H0.92V5.62H2.44V3.26C3.16 3.26 3.80667 3.19333 4.38 3.06C4.96667 2.91333 5.52 2.68667 6.04 2.38V5.62ZM12.2122 16.14C11.3589 16.14 10.7122 15.9133 10.2722 15.46C9.84552 14.9933 9.63219 14.4133 9.63219 13.72C9.63219 13.12 9.78552 12.6267 10.0922 12.24C10.4122 11.84 10.7855 11.5333 11.2122 11.32C11.6389 11.1067 12.1922 10.8867 12.8722 10.66C13.5922 10.42 14.1189 10.2 14.4522 10C14.7855 9.8 14.9522 9.52 14.9522 9.16V7.38C14.9522 6.95333 14.8455 6.57333 14.6322 6.24C14.4189 5.90667 14.0522 5.74 13.5322 5.74C13.1189 5.74 12.7455 5.85333 12.4122 6.08C12.8655 6.24 13.1989 6.48 13.4122 6.8C13.6389 7.10667 13.7522 7.45333 13.7522 7.84C13.7522 8.36 13.5655 8.78 13.1922 9.1C12.8322 9.40667 12.3922 9.56 11.8722 9.56C11.3522 9.56 10.9389 9.4 10.6322 9.08C10.3389 8.74667 10.1922 8.32667 10.1922 7.82C10.1922 7.42 10.2922 7.07333 10.4922 6.78C10.6922 6.48667 11.0055 6.22 11.4322 5.98C12.1789 5.55333 13.2455 5.34 14.6322 5.34C15.3655 5.34 15.9989 5.41333 16.5322 5.56C17.0655 5.69333 17.5189 5.95333 17.8922 6.34C18.1589 6.62 18.3322 6.97333 18.4122 7.4C18.5055 7.81333 18.5522 8.39333 18.5522 9.14V14.5C18.5522 14.8333 18.5722 15.06 18.6122 15.18C18.6655 15.3 18.7522 15.36 18.8722 15.36C18.9655 15.36 19.0655 15.3333 19.1722 15.28C19.2789 15.2133 19.3789 15.14 19.4722 15.06L19.6722 15.4C19.0989 15.8933 18.2789 16.14 17.2122 16.14C16.4122 16.14 15.8522 16.0067 15.5322 15.74C15.2122 15.46 15.0389 15.0867 15.0122 14.62C14.3855 15.6333 13.4522 16.14 12.2122 16.14ZM14.2122 14.54C14.4922 14.54 14.7389 14.4267 14.9522 14.2V9.98C14.8322 10.18 14.6122 10.44 14.2922 10.76C13.9322 11.1067 13.6589 11.4467 13.4722 11.78C13.2855 12.1 13.1922 12.54 13.1922 13.1C13.1922 14.06 13.5322 14.54 14.2122 14.54ZM26.0972 14.14C26.0972 14.6867 26.1772 15.0667 26.3372 15.28C26.5105 15.48 26.8039 15.58 27.2172 15.58V16C25.7772 15.9467 24.8305 15.92 24.3772 15.92C23.9239 15.92 22.9239 15.9467 21.3772 16V15.58C21.7905 15.58 22.0772 15.48 22.2372 15.28C22.4105 15.0667 22.4972 14.6867 22.4972 14.14V2.76C22.4972 2.14667 22.4105 1.7 22.2372 1.42C22.0772 1.14 21.7905 0.999999 21.3772 0.999999V0.579999C21.7905 0.62 22.2039 0.64 22.6172 0.64C24.0039 0.64 25.1639 0.546666 26.0972 0.359999V14.14ZM35.2444 14.1C36.2177 14.1 37.0244 13.6533 37.6644 12.76L38.0044 12.88C37.711 13.8133 37.211 14.6133 36.5044 15.28C35.811 15.9467 34.9177 16.28 33.8244 16.28C32.4244 16.28 31.3044 15.8467 30.4644 14.98C29.6244 14.1133 29.2044 12.7267 29.2044 10.82C29.2044 8.99333 29.671 7.62667 30.6044 6.72C31.551 5.8 32.7977 5.34 34.3444 5.34C36.8644 5.34 38.1244 6.83333 38.1244 9.82H32.9644C32.951 9.98 32.9444 10.22 32.9444 10.54C32.9444 11.82 33.1644 12.7333 33.6044 13.28C34.0577 13.8267 34.6044 14.1 35.2444 14.1ZM34.2044 5.8C33.4577 5.8 33.0177 7.01333 32.8844 9.44H35.2044C35.2177 8.37333 35.1377 7.5 34.9644 6.82C34.8044 6.14 34.551 5.8 34.2044 5.8ZM50.163 7.64C49.883 7.64 49.6363 7.54667 49.423 7.36C49.223 7.16 49.123 6.88667 49.123 6.54C49.123 6.22 49.2163 5.87333 49.403 5.5C48.8163 5.74 48.383 6.08 48.103 6.52C48.5963 7.04 48.843 7.71333 48.843 8.54C48.843 9.59333 48.4496 10.3933 47.663 10.94C46.8896 11.4733 45.8496 11.74 44.543 11.74C44.2896 11.74 44.103 11.7333 43.983 11.72C43.6363 11.96 43.463 12.24 43.463 12.56C43.463 12.9867 43.703 13.2 44.183 13.2H46.123C47.483 13.2 48.543 13.4333 49.303 13.9C50.0763 14.3533 50.463 15.0667 50.463 16.04C50.463 16.7333 50.2363 17.36 49.783 17.92C49.343 18.48 48.6563 18.9267 47.723 19.26C46.803 19.5933 45.6496 19.76 44.263 19.76C42.8896 19.76 41.8096 19.6067 41.023 19.3C40.2363 18.9933 39.843 18.56 39.843 18C39.843 17.6133 40.0363 17.26 40.423 16.94C40.8096 16.62 41.3963 16.3667 42.183 16.18L42.383 16.5C42.023 16.94 41.843 17.3667 41.843 17.78C41.843 18.3 42.0763 18.7 42.543 18.98C43.023 19.2733 43.6896 19.42 44.543 19.42C45.423 19.42 46.0963 19.24 46.563 18.88C47.043 18.5333 47.283 18.0667 47.283 17.48C47.283 17.0667 47.123 16.7333 46.803 16.48C46.4963 16.24 45.9496 16.12 45.163 16.12H44.083C43.1763 16.12 42.483 15.9467 42.003 15.6C41.523 15.2533 41.283 14.7867 41.283 14.2C41.283 13.6667 41.4696 13.2 41.843 12.8C42.2296 12.4 42.783 12.0267 43.503 11.68C42.4896 11.5467 41.6896 11.22 41.103 10.7C40.5296 10.1667 40.243 9.44667 40.243 8.54C40.243 7.48667 40.6296 6.69333 41.403 6.16C42.1896 5.61333 43.2363 5.34 44.543 5.34C45.943 5.34 47.023 5.63333 47.783 6.22C48.0363 5.87333 48.343 5.6 48.703 5.4C49.063 5.2 49.443 5.1 49.843 5.1C50.283 5.1 50.623 5.22667 50.863 5.48C51.103 5.72 51.223 6.03333 51.223 6.42C51.223 6.79333 51.123 7.09333 50.923 7.32C50.723 7.53333 50.4696 7.64 50.163 7.64ZM44.543 11.38C44.8096 11.38 45.0096 11.1667 45.143 10.74C45.2896 10.3 45.363 9.56667 45.363 8.54C45.363 7.51333 45.2896 6.78667 45.143 6.36C45.0096 5.92 44.8096 5.7 44.543 5.7C44.2763 5.7 44.0696 5.92 43.923 6.36C43.7896 6.78667 43.723 7.51333 43.723 8.54C43.723 9.56667 43.7896 10.3 43.923 10.74C44.0696 11.1667 44.2763 11.38 44.543 11.38ZM63.4092 13.82C63.4092 14.4333 63.4892 14.88 63.6492 15.16C63.8226 15.44 64.1159 15.58 64.5292 15.58V16C64.1159 15.96 63.7026 15.94 63.2892 15.94C61.9026 15.94 60.7426 16.0333 59.8092 16.22V14.78C59.2092 15.78 58.1492 16.28 56.6292 16.28C55.5626 16.28 54.8092 16.0133 54.3692 15.48C54.1692 15.24 54.0226 14.92 53.9292 14.52C53.8359 14.1067 53.7892 13.5667 53.7892 12.9V7.8C53.7892 7.18667 53.7026 6.74 53.5292 6.46C53.3692 6.18 53.0826 6.04 52.6692 6.04V5.62C53.0826 5.66 53.4959 5.68 53.9092 5.68C55.2959 5.68 56.4559 5.58667 57.3892 5.4V13.98C57.3892 14.4067 57.4626 14.7267 57.6092 14.94C57.7692 15.14 58.0226 15.24 58.3692 15.24C58.7559 15.24 59.0892 15.1067 59.3692 14.84C59.6626 14.56 59.8092 14.2133 59.8092 13.8V7.8C59.8092 7.18667 59.7226 6.74 59.5492 6.46C59.3892 6.18 59.1026 6.04 58.6892 6.04V5.62C59.1026 5.66 59.5159 5.68 59.9292 5.68C61.3159 5.68 62.4759 5.58667 63.4092 5.4V13.82ZM69.3106 0.359999C70.004 0.359999 70.5373 0.506665 70.9106 0.799999C71.2973 1.09333 71.4906 1.52 71.4906 2.08C71.4906 2.64 71.2973 3.06667 70.9106 3.36C70.5373 3.65333 70.004 3.8 69.3106 3.8C68.604 3.8 68.064 3.65333 67.6906 3.36C67.3173 3.06667 67.1306 2.64 67.1306 2.08C67.1306 1.52 67.3173 1.09333 67.6906 0.799999C68.064 0.506665 68.604 0.359999 69.3106 0.359999ZM71.2306 14.14C71.2306 14.6867 71.3106 15.0667 71.4706 15.28C71.644 15.48 71.9373 15.58 72.3506 15.58V16C70.9106 15.9467 69.964 15.92 69.5106 15.92C69.0573 15.92 68.0573 15.9467 66.5106 16V15.58C66.924 15.58 67.2106 15.48 67.3706 15.28C67.544 15.0667 67.6306 14.6867 67.6306 14.14V7.8C67.6306 7.18667 67.544 6.74 67.3706 6.46C67.2106 6.18 66.924 6.04 66.5106 6.04V5.62C66.9373 5.66 67.3506 5.68 67.7506 5.68C69.1373 5.68 70.2973 5.58667 71.2306 5.4V14.14ZM78.9722 14.14C78.9722 14.6867 79.0522 15.0667 79.2122 15.28C79.3855 15.48 79.6789 15.58 80.0922 15.58V16C78.6522 15.9467 77.7055 15.92 77.2522 15.92C76.7989 15.92 75.7989 15.9467 74.2522 16V15.58C74.6655 15.58 74.9522 15.48 75.1122 15.28C75.2855 15.0667 75.3722 14.6867 75.3722 14.14V2.76C75.3722 2.14667 75.2855 1.7 75.1122 1.42C74.9522 1.14 74.6655 0.999999 74.2522 0.999999V0.579999C74.6655 0.62 75.0789 0.64 75.4922 0.64C76.8789 0.64 78.0389 0.546666 78.9722 0.359999V14.14ZM92.1994 13.8C92.1994 14.4133 92.2794 14.86 92.4394 15.14C92.6127 15.42 92.906 15.56 93.3194 15.56V15.98C92.906 15.94 92.4927 15.92 92.0794 15.92C90.6927 15.92 89.5327 16.0133 88.5994 16.2V14.78C88.3194 15.3 87.986 15.68 87.5994 15.92C87.226 16.16 86.746 16.28 86.1594 16.28C84.9327 16.28 83.946 15.8267 83.1994 14.92C82.4527 14 82.0794 12.6067 82.0794 10.74C82.0794 8.96667 82.4727 7.62667 83.2594 6.72C84.0594 5.8 85.146 5.34 86.5194 5.34C87.3727 5.34 88.066 5.50667 88.5994 5.84V2.76C88.5994 2.14667 88.5127 1.7 88.3394 1.42C88.1794 1.14 87.8927 0.999999 87.4794 0.999999V0.579999C87.8927 0.62 88.306 0.64 88.7194 0.64C90.106 0.64 91.266 0.546666 92.1994 0.359999V13.8ZM87.1594 15.24C87.546 15.24 87.8794 15.1067 88.1594 14.84C88.4527 14.56 88.5994 14.2133 88.5994 13.8V6.26C88.306 6.08667 87.9927 6 87.6594 6C87.0327 6 86.566 6.4 86.2594 7.2C85.966 7.98667 85.8194 9.18667 85.8194 10.8C85.8194 12.44 85.9394 13.5933 86.1794 14.26C86.4194 14.9133 86.746 15.24 87.1594 15.24ZM97.6669 12.84C98.3069 12.84 98.7935 12.9867 99.1269 13.28C99.4735 13.5733 99.6469 14 99.6469 14.56C99.6469 15.12 99.4735 15.5467 99.1269 15.84C98.7935 16.1333 98.3069 16.28 97.6669 16.28C97.0269 16.28 96.5335 16.1333 96.1869 15.84C95.8535 15.5467 95.6869 15.12 95.6869 14.56C95.6869 14 95.8535 13.5733 96.1869 13.28C96.5335 12.9867 97.0269 12.84 97.6669 12.84Z" fill="#231F1A"/>
</svg>
