<svg width="132" height="132" viewBox="0 0 132 132" fill="none" xmlns="http://www.w3.org/2000/svg">
<rect width="132" height="132" rx="36" fill="#292929"/>
<path fill-rule="evenodd" clip-rule="evenodd" d="M63.5 46C53.835 46 46 53.835 46 63.5C46 73.165 53.835 81 63.5 81C73.165 81 81 73.165 81 63.5C81 53.835 73.165 46 63.5 46ZM41 63.5C41 51.0736 51.0736 41 63.5 41C75.9264 41 86 51.0736 86 63.5C86 75.9264 75.9264 86 63.5 86C51.0736 86 41 75.9264 41 63.5Z" fill="#635E54"/>
<path fill-rule="evenodd" clip-rule="evenodd" d="M75.8572 75.8572C76.8335 74.8809 78.4165 74.8809 79.3928 75.8572L90.2678 86.7322C91.2441 87.7085 91.2441 89.2915 90.2678 90.2678C89.2915 91.2441 87.7085 91.2441 86.7322 90.2678L75.8572 79.3928C74.8809 78.4165 74.8809 76.8335 75.8572 75.8572Z" fill="#635E54"/>
</svg>
