<svg width="108" height="122" viewBox="0 0 108 122" fill="none" xmlns="http://www.w3.org/2000/svg">
<path d="M6 11C6 8.79086 7.79086 7 10 7H98C100.209 7 102 8.79086 102 11V45.624C102 63.9207 94.169 81.3425 80.4853 93.4884L56.25 115L29.7733 93.6034C14.7378 81.4528 6 63.1572 6 43.8258V11Z" fill="#292929"/>
<path fill-rule="evenodd" clip-rule="evenodd" d="M52 35.5C44.268 35.5 38 41.768 38 49.5C38 57.232 44.268 63.5 52 63.5C59.732 63.5 66 57.232 66 49.5C66 41.768 59.732 35.5 52 35.5ZM34 49.5C34 39.5589 42.0589 31.5 52 31.5C61.9411 31.5 70 39.5589 70 49.5C70 59.4411 61.9411 67.5 52 67.5C42.0589 67.5 34 59.4411 34 49.5Z" fill="#635E54"/>
<path fill-rule="evenodd" clip-rule="evenodd" d="M61.8858 59.3856C62.6669 58.6045 63.9332 58.6045 64.7143 59.3856L73.4143 68.0856C74.1953 68.8666 74.1953 70.133 73.4143 70.914C72.6332 71.6951 71.3669 71.6951 70.5858 70.914L61.8858 62.214C61.1048 61.433 61.1048 60.1666 61.8858 59.3856Z" fill="#635E54"/>
</svg>
