<svg width="160" height="160" viewBox="0 0 160 160" fill="none" xmlns="http://www.w3.org/2000/svg">
<path d="M60.0016 26.667V35.867C54.4682 33.667 48.5349 32.5337 42.6016 32.5337C30.6682 32.5337 18.7349 37.067 9.60156 46.2003L31.8016 68.4004H39.2016V75.8004C44.9349 81.5337 52.4016 84.5337 59.9349 84.867V100H40.0016V120C40.0016 127.334 46.0016 133.334 53.3349 133.334H120.002C131.068 133.334 140.002 124.4 140.002 113.334V26.667H60.0016ZM52.6016 69.4004V55.067H37.4016L30.4682 48.1337C34.2682 46.667 38.4016 45.867 42.6016 45.867C51.5349 45.867 59.8682 49.3337 66.2016 55.6003L75.6016 65.0004L74.2682 66.3337C70.8682 69.7337 66.3349 71.667 61.4682 71.667C58.3349 71.667 55.2682 70.867 52.6016 69.4004ZM126.668 113.334C126.668 117 123.668 120 120.002 120C116.335 120 113.335 117 113.335 113.334V100H73.3349V82.7337C77.1349 81.2004 80.6682 78.9337 83.7349 75.867L85.0682 74.5337L103.935 93.3337H113.335V83.9337L73.3349 44.1337V40.0003H126.668V113.334Z" fill="#CDC7C1"/>
</svg>
