<svg width="220" height="244" viewBox="0 0 220 244" fill="none" xmlns="http://www.w3.org/2000/svg">
<path d="M201.667 18.3L183.333 0L165 18.3L146.667 0L128.333 18.3L110 0L91.6667 18.3L73.3333 0L55 18.3L36.6667 0V170.8H0V207.4C0 227.652 16.3778 244 36.6667 244H183.333C203.622 244 220 227.652 220 207.4V0L201.667 18.3ZM146.667 219.6H36.6667C29.9444 219.6 24.4444 214.11 24.4444 207.4V195.2H146.667V219.6ZM195.556 207.4C195.556 214.11 190.056 219.6 183.333 219.6C176.611 219.6 171.111 214.11 171.111 207.4V170.8H61.1111V36.6H195.556V207.4Z" fill="#E9E6E2"/>
<path d="M146.667 61H73.334V85.4H146.667V61Z" fill="#CDC7C1"/>
<path d="M183.333 61H158.889V85.4H183.333V61Z" fill="#CDC7C1"/>
<path d="M146.667 97.6006H73.334V122.001H146.667V97.6006Z" fill="#E9E6E2"/>
<path d="M183.333 97.6006H158.889V122.001H183.333V97.6006Z" fill="#E9E6E2"/>
</svg>
