<svg width="20" height="20" viewBox="0 0 20 20" fill="none" xmlns="http://www.w3.org/2000/svg">
<g clip-path="url(#clip0)">
<path fill-rule="evenodd" clip-rule="evenodd" d="M10.497 0.833984C10.8315 0.833984 11.1369 1.02383 11.2849 1.32371L13.7957 6.4102L19.4104 7.23089C19.7413 7.27925 20.016 7.51122 20.1192 7.82929C20.2223 8.14736 20.136 8.4964 19.8964 8.7297L15.8343 12.6862L16.793 18.2757C16.8495 18.6054 16.714 18.9385 16.4434 19.1351C16.1728 19.3317 15.8141 19.3576 15.518 19.2019L10.497 16.5614L5.47603 19.2019C5.18001 19.3576 4.82127 19.3317 4.55067 19.1351C4.28007 18.9385 4.14454 18.6054 4.20108 18.2757L5.15975 12.6862L1.09764 8.7297C0.858108 8.4964 0.771762 8.14736 0.874894 7.82929C0.978026 7.51122 1.25276 7.27925 1.58362 7.23089L7.19841 6.4102L9.70915 1.32371C9.85718 1.02383 10.1626 0.833984 10.497 0.833984ZM10.497 3.69768L8.56993 7.60177C8.44205 7.86083 8.19499 8.04048 7.90913 8.08226L3.59836 8.71235L6.71691 11.7498C6.92416 11.9517 7.01876 12.2426 6.96985 12.5278L6.23406 16.8178L10.0881 14.791C10.3441 14.6564 10.65 14.6564 10.906 14.791L14.76 16.8178L14.0242 12.5278C13.9753 12.2426 14.0699 11.9517 14.2771 11.7498L17.3957 8.71235L13.0849 8.08226C12.7991 8.04048 12.552 7.86083 12.4241 7.60177L10.497 3.69768Z" fill="#2CC995"/>
</g>
<defs>
<clipPath id="clip0">
<rect width="20" height="20" fill="white"/>
</clipPath>
</defs>
</svg>
