<svg width="281" height="288" viewBox="0 0 281 288" fill="none" xmlns="http://www.w3.org/2000/svg">
<g clip-path="url(#clip0)">
<path d="M277.238 200.377L237.019 154.358H252.439C256.975 154.358 260.987 151.815 262.9 147.716C264.813 143.627 264.184 138.938 261.249 135.485L221.916 89.2615H236.46C241.041 89.2615 245.17 86.5407 246.962 82.34C248.734 78.2054 247.898 73.3944 244.827 70.0938L189.314 10.3479C186.279 7.06764 180.615 7.06764 177.575 10.3479L122.057 70.0938C118.986 73.3944 118.155 78.2054 119.922 82.34C121.714 86.5407 125.848 89.2615 130.429 89.2615H144.973L105.635 135.495C102.71 138.943 102.081 143.627 103.989 147.721C105.902 151.815 109.909 154.358 114.45 154.358H129.87L89.6513 200.377C86.6308 203.83 85.9461 208.56 87.8591 212.715C89.747 216.809 93.9002 219.454 98.4361 219.454H167.335V231.888L152.086 256.502C149.408 261.913 153.304 268.281 159.29 268.281H207.599C213.585 268.281 217.481 261.913 214.803 256.502L199.554 231.888V219.454H268.453C272.989 219.454 277.142 216.809 279.03 212.715C280.943 208.56 280.258 203.83 277.238 200.377Z" fill="#E9E6E2"/>
</g>
<g clip-path="url(#clip1)">
<path d="M229.726 217.018L187.045 168.907H203.409C208.223 168.907 212.481 166.248 214.511 161.963C216.541 157.688 215.873 152.786 212.758 149.176L171.018 100.852H186.452C191.314 100.852 195.695 98.0075 197.596 93.6158C199.477 89.2932 198.59 84.2635 195.331 80.8129L136.42 18.3513C133.198 14.922 127.188 14.922 123.961 18.3513L65.0442 80.8129C61.7853 84.2635 60.9038 89.2932 62.779 93.6158C64.6809 98.0075 69.0671 100.852 73.9287 100.852H89.3632L47.617 149.187C44.5131 152.792 43.8453 157.688 45.8701 161.968C47.9002 166.248 52.1528 168.907 56.9717 168.907H73.3357L30.6547 217.018C27.4492 220.629 26.7226 225.573 28.7528 229.917C30.7562 234.197 35.1637 236.962 39.9773 236.962H113.094V249.961L96.9121 275.695C94.0699 281.352 98.205 288.008 104.557 288.008H155.824C162.176 288.008 166.311 281.352 163.469 275.695L147.286 249.961V236.962H220.403C225.217 236.962 229.625 234.197 231.628 229.917C233.658 225.573 232.932 220.629 229.726 217.018Z" fill="white"/>
</g>
<g clip-path="url(#clip2)">
<path d="M202.109 201.238L159.428 153.127H175.792C180.605 153.127 184.863 150.468 186.894 146.183C188.924 141.908 188.256 137.006 185.141 133.396L143.4 85.0717H158.835C163.696 85.0717 168.077 82.2272 169.979 77.8355C171.86 73.513 170.973 68.4833 167.714 65.0327L108.803 2.57102C105.581 -0.858309 99.5707 -0.858309 96.3439 2.57102L37.427 65.0327C34.1681 68.4833 33.2866 73.513 35.1618 77.8355C37.0637 82.2272 41.4499 85.0717 46.3116 85.0717H61.746L19.9999 133.407C16.8959 137.011 16.2281 141.908 18.2529 146.188C20.283 150.468 24.5356 153.127 29.3545 153.127H45.7185L3.03749 201.238C-0.167995 204.848 -0.894572 209.793 1.13557 214.137C3.139 218.417 7.54654 221.181 12.3601 221.181H85.4773V234.181L69.2949 259.914C66.4527 265.571 70.5878 272.228 76.94 272.228H128.206C134.559 272.228 138.694 265.571 135.851 259.914L119.669 234.181V221.181H192.786C197.6 221.181 202.007 218.417 204.011 214.137C206.041 209.793 205.314 204.848 202.109 201.238Z" fill="#CDC7C1"/>
</g>
<defs>
<clipPath id="clip0">
<rect width="193.315" height="260.384" fill="white" transform="translate(86.7891 7.88867)"/>
</clipPath>
<clipPath id="clip1">
<rect width="205.151" height="272.22" fill="white" transform="translate(27.6172 15.7803)"/>
</clipPath>
<clipPath id="clip2">
<rect width="205.151" height="272.22" fill="white"/>
</clipPath>
</defs>
</svg>
