<svg width="2002" height="1502" viewBox="0 0 2002 1502" fill="none" xmlns="http://www.w3.org/2000/svg">
<path d="M1146.11 1078.87C1146.05 1077.82 1145.17 1077 1144.12 1077H1062.13C1060.98 1077 1060.06 1077.97 1060.14 1079.13L1080.37 1387.13C1080.44 1388.18 1081.32 1389 1082.37 1389H1162.87C1164.02 1389 1164.94 1388.02 1164.87 1386.87L1146.11 1078.87Z" fill="#D4C21E"/>
<path d="M1166 1332C1166 1329.79 1164.21 1328 1162 1328H1074.8C1072.3 1328 1070.41 1330.26 1070.87 1332.72L1101.39 1498.72C1101.74 1500.62 1103.4 1502 1105.33 1502H1162C1164.21 1502 1166 1500.21 1166 1498V1332Z" fill="#703D2D"/>
<g filter="url(#filter0_i)">
<path d="M1193.34 1065.52L1262.09 1359.02C1265.62 1374.08 1254.19 1388.5 1238.73 1388.5H1197.59C1186.65 1388.5 1177.09 1381.09 1174.35 1370.49L1103.98 1097.59C1103.15 1094.38 1100.25 1092.13 1096.93 1092.13C1093.08 1092.13 1089.89 1095.13 1089.67 1098.98L1073.84 1365.92C1073.08 1378.6 1062.58 1388.5 1049.88 1388.5H761.269C745.802 1388.5 734.374 1374.08 737.902 1359.02L806.657 1065.52C809.199 1054.67 818.879 1047 830.025 1047H1169.97C1181.12 1047 1190.79 1054.67 1193.34 1065.52Z" fill="#728639"/>
</g>
<path d="M1573.13 911.304C1590.49 881.454 1571.5 843.692 1537.64 836.861C1428.02 814.739 1358.79 773.042 1281.87 686.018C1259.33 660.512 1217.92 663.121 1200.8 692.545L1198.62 696.308C1188.07 714.435 1190.47 737.396 1204.94 752.573C1305.87 858.416 1382.68 905.321 1520.63 936.789C1540.61 941.346 1561.08 932.018 1571.38 914.306L1573.13 911.304Z" fill="#D4C21E"/>
<path d="M1505.42 801.502L1577.81 848.666L1563.96 935.196L1480.46 957.394C1472.97 925.493 1452.67 894.867 1455.07 871.129C1457.52 846.974 1482.92 829.744 1505.42 801.502Z" fill="#703D2D"/>
<circle cx="1595.95" cy="895.813" r="62.9274" transform="rotate(-16.4156 1595.95 895.813)" fill="#703D2D"/>
<g filter="url(#filter1_i)">
<path d="M1088.09 621.84L1251.3 666.188C1261.75 669.029 1269 678.518 1269 689.349V761.656C1269 763.875 1268.69 766.083 1268.09 768.217L1193.96 1029.06C1191.03 1039.38 1181.6 1046.5 1170.87 1046.5H829.132C818.404 1046.5 808.979 1039.38 806.046 1029.06L731.916 768.217C731.31 766.083 731.002 763.875 731.002 761.656V689.349C731.002 678.518 738.256 669.029 748.708 666.188L911.911 621.84C913.963 621.282 916.079 621 918.205 621H1081.8C1083.92 621 1086.04 621.282 1088.09 621.84Z" fill="#728639"/>
</g>
<path d="M1085 587H915.004V621H1062H1085V587Z" fill="#728639"/>
<path d="M1189 1038H811.001L804.998 1072H1194.5L1189 1038Z" fill="#703D2D"/>
<path d="M1081.07 1040.63C1101.58 822.734 1107.45 742.826 1057.6 689.001L1021.9 686.185C1074.19 779.951 1072.13 840.797 1053.57 1040.63L1081.07 1040.63Z" fill="#703D2D"/>
<path d="M1130.57 1014.63H1012.57V1094.63L1120.44 1094.63H1130.57V1014.63Z" fill="#703D2D" stroke="#FFC42D" stroke-width="16"/>
<path d="M639.507 1087.51C672.835 1096.55 704.394 1068.43 702.23 1033.96C695.225 922.348 717.583 844.685 781.735 747.865C800.537 719.488 787.3 680.168 754.448 671.25L750.246 670.11C730.008 664.616 708.45 672.873 697.536 690.78C621.421 815.663 595.996 902 601.304 1043.4C602.073 1063.87 616.38 1081.23 636.156 1086.6L639.507 1087.51Z" fill="#D4C21E"/>
<path d="M728.408 993.309L701.587 1075.44L614.419 1084.45L571.366 1009.54C600.241 994.05 622.521 972.451 646.072 968.629C670.038 964.739 695.305 978.887 728.408 993.309Z" fill="#703D2D"/>
<circle cx="660.741" cy="1105.16" r="62.9274" transform="rotate(58.5844 660.741 1105.16)" fill="#703D2D"/>
<path d="M850.998 1392C850.998 1389.79 852.788 1388 854.998 1388H931.867C934.472 1388 936.382 1390.45 935.746 1392.97L909.091 1498.97C908.644 1500.75 907.046 1502 905.212 1502H854.998C852.788 1502 850.998 1500.21 850.998 1498V1392Z" fill="#703D2D"/>
<g filter="url(#filter2_d)">
<path d="M947.5 820C1003.58 772.154 1031.76 723.396 1042.57 676.629L1026.57 621.131C976.572 620.464 898.472 617.328 808.072 628.128C717.672 638.928 640.072 729.462 639.572 770.129C683.572 806.629 725.158 811.927 800.572 802.129C857.5 820 893.5 827.5 947.5 820Z" fill="#468408"/>
<path d="M947.5 820C1003.58 772.154 1031.76 723.396 1042.57 676.629L1026.57 621.131C976.572 620.464 898.472 617.328 808.072 628.128C717.672 638.928 640.072 729.462 639.572 770.129C683.572 806.629 725.158 811.927 800.572 802.129C857.5 820 893.5 827.5 947.5 820Z" stroke="black"/>
</g>
<g filter="url(#filter3_d)">
<path d="M1179.07 803.629C1122.99 755.783 1075.38 721.896 1064.57 675.129L1026.57 621.587C1076.57 620.92 1161.68 618.872 1192.57 627.158C1308.07 658.13 1393.07 745.129 1393.07 763.154C1349.07 799.654 1344.49 789.927 1269.07 780.129C1210.17 791.942 1230.17 800.636 1179.07 803.629Z" fill="#468408"/>
<path d="M1179.07 803.629C1122.99 755.783 1075.38 721.896 1064.57 675.129L1026.57 621.587C1076.57 620.92 1161.68 618.872 1192.57 627.158C1308.07 658.13 1393.07 745.129 1393.07 763.154C1349.07 799.654 1344.49 789.927 1269.07 780.129C1210.17 791.942 1230.17 800.636 1179.07 803.629Z" stroke="black"/>
</g>
<circle cx="1040.31" cy="669.371" r="32.963" transform="rotate(75 1040.31 669.371)" fill="#8B5A21" stroke="#FFC42D" stroke-width="30"/>
<defs>
<filter id="filter0_i" x="737.258" y="1047" width="525.477" height="341.5" filterUnits="userSpaceOnUse" color-interpolation-filters="sRGB">
<feFlood flood-opacity="0" result="BackgroundImageFix"/>
<feBlend mode="normal" in="SourceGraphic" in2="BackgroundImageFix" result="shape"/>
<feColorMatrix in="SourceAlpha" type="matrix" values="0 0 0 0 0 0 0 0 0 0 0 0 0 0 0 0 0 0 127 0" result="hardAlpha"/>
<feOffset dx="64"/>
<feComposite in2="hardAlpha" operator="arithmetic" k2="-1" k3="1"/>
<feColorMatrix type="matrix" values="0 0 0 0 0.33873 0 0 0 0 0.394115 0 0 0 0 0.180885 0 0 0 1 0"/>
<feBlend mode="normal" in2="shape" result="effect1_innerShadow"/>
</filter>
<filter id="filter1_i" x="731.002" y="621" width="538" height="425.5" filterUnits="userSpaceOnUse" color-interpolation-filters="sRGB">
<feFlood flood-opacity="0" result="BackgroundImageFix"/>
<feBlend mode="normal" in="SourceGraphic" in2="BackgroundImageFix" result="shape"/>
<feColorMatrix in="SourceAlpha" type="matrix" values="0 0 0 0 0 0 0 0 0 0 0 0 0 0 0 0 0 0 127 0" result="hardAlpha"/>
<feOffset dx="64"/>
<feComposite in2="hardAlpha" operator="arithmetic" k2="-1" k3="1"/>
<feColorMatrix type="matrix" values="0 0 0 0 0.33873 0 0 0 0 0.394115 0 0 0 0 0.180885 0 0 0 1 0"/>
<feBlend mode="normal" in2="shape" result="effect1_innerShadow"/>
</filter>
<filter id="filter2_d" x="639.572" y="620.195" width="403" height="213.694" filterUnits="userSpaceOnUse" color-interpolation-filters="sRGB">
<feFlood flood-opacity="0" result="BackgroundImageFix"/>
<feColorMatrix in="SourceAlpha" type="matrix" values="0 0 0 0 0 0 0 0 0 0 0 0 0 0 0 0 0 0 127 0" result="hardAlpha"/>
<feOffset dy="11"/>
<feComposite in2="hardAlpha" operator="out"/>
<feColorMatrix type="matrix" values="0 0 0 0 0.908333 0 0 0 0 0.653135 0 0 0 0 0 0 0 0 1 0"/>
<feBlend mode="normal" in2="BackgroundImageFix" result="effect1_dropShadow"/>
<feBlend mode="normal" in="SourceGraphic" in2="effect1_dropShadow" result="shape"/>
</filter>
<filter id="filter3_d" x="1026.57" y="620.871" width="366.499" height="193.758" filterUnits="userSpaceOnUse" color-interpolation-filters="sRGB">
<feFlood flood-opacity="0" result="BackgroundImageFix"/>
<feColorMatrix in="SourceAlpha" type="matrix" values="0 0 0 0 0 0 0 0 0 0 0 0 0 0 0 0 0 0 127 0" result="hardAlpha"/>
<feOffset dy="11"/>
<feComposite in2="hardAlpha" operator="out"/>
<feColorMatrix type="matrix" values="0 0 0 0 0.908333 0 0 0 0 0.653135 0 0 0 0 0 0 0 0 1 0"/>
<feBlend mode="normal" in2="BackgroundImageFix" result="effect1_dropShadow"/>
<feBlend mode="normal" in="SourceGraphic" in2="effect1_dropShadow" result="shape"/>
</filter>
</defs>
</svg>
