<svg width="1000" height="1500" viewBox="0 0 1000 1500" fill="none" xmlns="http://www.w3.org/2000/svg">
<path d="M688.507 999.601C721.835 1008.65 753.394 980.524 751.23 946.058C744.225 834.442 766.583 756.779 830.735 659.959C849.537 631.582 836.3 592.262 803.448 583.344L799.246 582.203C779.008 576.709 757.45 584.967 746.536 602.874C670.421 727.757 644.996 814.094 650.304 955.489C651.073 975.966 665.38 993.322 685.156 998.691L688.507 999.601Z" fill="#6665B2"/>
<path d="M777.407 905.394L750.586 987.526L663.418 996.536L620.365 921.627C678.623 890.371 711.773 876.798 777.407 905.394Z" fill="#1A1B1F"/>
<circle cx="709.742" cy="1017.25" r="62.9274" transform="rotate(58.5844 709.742 1017.25)" fill="#1A1B1F"/>
</svg>
