<svg width="1000" height="1000" viewBox="0 0 1000 1000" fill="none" xmlns="http://www.w3.org/2000/svg">
<path d="M513.128 836.308C530.493 806.458 511.496 768.696 477.644 761.865C368.018 739.743 298.788 698.046 221.871 611.021C199.327 585.515 157.921 588.125 140.804 617.549L138.615 621.312C128.07 639.439 130.466 662.4 144.938 677.577C245.867 783.42 322.681 830.325 460.633 861.793C480.611 866.35 501.078 857.022 511.382 839.31L513.128 836.308Z" fill="#6665B2"/>
<path d="M445.142 726.053L517.533 773.217L503.676 859.747L420.175 881.945C405.063 817.583 400.533 782.049 445.142 726.053Z" fill="#1A1B1F"/>
<circle cx="535.673" cy="820.364" r="62.9274" transform="rotate(-16.4156 535.673 820.364)" fill="#1A1B1F"/>
</svg>
