<svg width="1000" height="1000" viewBox="0 0 1000 1000" fill="none" xmlns="http://www.w3.org/2000/svg">
<path fill-rule="evenodd" clip-rule="evenodd" d="M296.433 89H679.798L693.84 215.125C729.969 233.7 755.33 277.284 755.33 328.088C755.33 367.074 740.396 401.808 717.122 424.252L769 890.245H230.877L296.433 89Z" fill="#7F7FCA"/>
<path d="M726.193 522.209H261.84L257.36 587.765H733.477L726.193 522.209Z" fill="#1A1B1F"/>
<circle cx="500.299" cy="565.825" r="66.6659" transform="rotate(75 500.299 565.825)" fill="#DD0077" stroke="#DDC700" stroke-width="3"/>
<path d="M361.99 394.93C361.99 394.93 420.263 420.424 457.418 430.665C541.348 453.8 551.463 404.849 563.03 413.783C629.326 464.987 715.266 424.066 715.266 424.066L718.908 460.486C718.908 460.486 481.649 480.85 435.73 461.934C414.042 453 361.99 394.93 361.99 394.93Z" fill="#4A4AA5"/>
</svg>
